<?xml version="1.0" encoding="UTF-8"?>
<svg width="1200pt" height="1200pt" version="1.1" viewBox="0 0 1200 1200" xmlns="http://www.w3.org/2000/svg">
 <g>
  <path d="m111.09 792.19c-21.797-55.312-33.75-113.91-35.859-173.44h74.766v-37.5h-74.531c9.6094-275.39 230.39-496.17 505.78-505.78v74.531h37.5v-74.766c109.22 3.5156 214.69 41.484 301.17 108.28l22.969-29.766c-246.33-189.38-599.53-143.2-788.91 103.12-75.469 98.438-116.48 219.14-116.48 343.12-0.23438 70.547 13.125 140.39 38.906 205.78z"/>
  <path d="m1011.8 274.22c69.844 87.422 109.22 195.23 112.73 307.03h-74.531v37.5h74.531c-9.6094 275.39-230.62 496.17-505.78 505.78v-74.531h-37.5v74.531c-161.72-5.625-311.95-85.547-406.88-216.8l-30.469 22.031c105.94 146.25 275.62 232.97 456.09 232.73 310.78 0 562.5-252.19 562.5-562.73 0-126.56-42.656-249.38-121.17-348.75z"/>
  <path d="m808.8 998.96 32.477-18.75 18.516 32.07-32.477 18.75z"/>
  <path d="m980.18 841.14 18.75-32.477 32.273 18.633-18.75 32.477z"/>
  <path d="m980.18 359.01 33.285-19.219 18.75 32.477-33.285 19.219z"/>
  <path d="m808.84 200.82 18.867-32.68 32.477 18.75-18.867 32.68z"/>
  <path d="m339.95 186.91 32.477-18.75 18.75 32.477-32.477 18.75z"/>
  <path d="m168.64 372.75 18.75-32.477 32.07 18.516-18.75 32.477z"/>
  <path d="m340.09 1012.5 18.633-32.273 32.477 18.75-18.633 32.273z"/>
  <path d="m1031.2 37.5v37.5h67.266l-236.72 236.72c-21.094-7.5-43.359-11.484-65.625-11.719h-1.6406c-55.078 0-107.81 22.5-146.02 62.344l-48.516 49.922-48.047-50.156c-38.203-39.609-90.938-62.109-146.02-62.344h-1.6406c-53.906 0-105.23 22.734-141.8 62.109-75.938 82.969-74.766 210 2.3438 291.33l15 15.469-236.72 236.72 26.484 26.484 236.25-236.25 294.14 306.33 335.16-348.75c77.109-81.328 78.047-208.36 2.5781-291.09-11.953-12.891-25.312-23.906-40.312-33.047l227.58-227.58v67.266h37.5v-131.25zm-739.45 589.69c-63.281-67.031-64.219-171.56-2.1094-239.53 29.531-31.875 71.016-50.156 114.61-50.156h1.4062c45 0 87.891 18.516 119.06 50.859l75.234 78.047 75.234-78.281c31.172-32.344 74.062-50.625 119.06-50.859h1.4062c12.188 0 24.141 1.6406 35.859 4.4531l-269.06 269.3-112.5-112.5-143.67 143.67zm618.52-239.53c62.109 68.203 61.172 172.5-2.1094 239.53l-308.2 320.86-267.89-278.67 117.89-117.89 112.5 112.5 307.5-307.5c15 8.2031 28.594 18.75 40.312 31.172z"/>
 </g>
</svg>
