<?xml version="1.0" encoding="UTF-8"?>
<svg id="Layer_1" data-name="Layer 1" xmlns="http://www.w3.org/2000/svg" viewBox="0 0 945.73 1049.19">
  <defs>
    <style>
      .cls-1 {
        fill: #000;
        stroke-width: 0px;
      }
    </style>
  </defs>
  <g id="Layer_2" data-name="Layer 2">
    <g id="Layer_3" data-name="Layer 3">
      <g id="Layer_8" data-name="Layer 8">
        <path class="cls-1" d="M675.56,1030.39v-128.25c-.4-23.4,10.22-45.62,28.67-60,79.27-59.09,132.23-146.89,147.53-244.57.91-6.55-1.7-13.1-6.87-17.22-5.16-4.13-12.12-5.23-18.31-2.9-6.19,2.33-10.69,7.75-11.85,14.26-13.79,88.02-61.52,167.13-132.93,220.39-27.93,21.47-44.13,54.82-43.74,90.05v128.25c.13,6.61,3.73,12.67,9.48,15.94,5.75,3.27,12.8,3.27,18.54,0,5.75-3.27,9.35-9.32,9.48-15.94h0Z"/>
      </g>
      <g id="Layer_7" data-name="Layer 7">
        <path class="cls-1" d="M94.87,737.38v134.62c.02,22.97,9.16,44.99,25.4,61.23,16.24,16.24,38.26,25.38,61.23,25.4h45.19c13.02.02,25.5,5.2,34.71,14.41,9.2,9.21,14.38,21.69,14.39,34.71v22.69c0,6.7,3.57,12.89,9.38,16.24,5.8,3.35,12.95,3.35,18.75,0,5.8-3.35,9.38-9.54,9.38-16.24v-22.69c-.02-22.96-9.15-44.98-25.39-61.22-16.24-16.24-38.25-25.38-61.21-25.4h-45.19c-13.03-.02-25.51-5.2-34.72-14.41-9.21-9.21-14.39-21.7-14.41-34.72v-47.62h56.25c6.61-.12,12.67-3.73,15.95-9.48,3.27-5.75,3.27-12.8,0-18.55-3.27-5.75-9.33-9.35-15.95-9.48h-56.25v-68.24c0-4.98-1.97-9.75-5.49-13.26-3.52-3.52-8.29-5.49-13.26-5.49H41.24c-1.45.04-2.8-.72-3.52-1.98-.72-1.26-.68-2.81.09-4.03l91.7-146.43c1.87-2.98,2.86-6.43,2.86-9.94-.18-63.27,17.21-125.34,50.23-179.3,33.02-53.96,80.38-97.7,136.79-126.32,5.85-3.11,9.62-9.08,9.92-15.7.3-6.62-2.91-12.9-8.45-16.54-5.54-3.63-12.59-4.07-18.54-1.16-61.76,31.34-113.75,79-150.32,137.81-36.57,58.81-56.32,126.52-57.1,195.77L6,674.01c-5.09,8.44-7.03,18.4-5.49,28.13,1.55,9.73,6.48,18.6,13.93,25.05s16.94,10.05,26.79,10.19h53.64Z"/>
      </g>
      <g id="Layer_6" data-name="Layer 6">
        <path class="cls-1" d="M926.95,368.75c-4.97,0-9.74,1.97-13.26,5.49-3.52,3.52-5.49,8.29-5.49,13.26-.02,30.55-14.76,59.21-39.6,76.99s-56.72,22.51-85.65,12.69c-5.11-1.73-10.72-1.17-15.39,1.54-4.67,2.7-7.95,7.29-9,12.58-5.82,28.82-24.68,53.3-51.06,66.28-26.38,12.98-57.29,12.98-83.67,0-26.38-12.98-45.24-37.46-51.07-66.28-1.08-5.27-4.36-9.84-9.02-12.53-4.66-2.7-10.25-3.27-15.37-1.58-27.91,9.45-58.62,5.39-83.12-10.99-24.5-16.38-39.99-43.21-41.93-72.61-1.93-29.4,9.91-58.03,32.04-77.48,4.03-3.58,6.34-8.71,6.34-14.1s-2.3-10.52-6.34-14.1c-22.1-19.46-33.92-48.08-31.97-77.46,1.94-29.39,17.43-56.2,41.9-72.57,24.48-16.38,55.17-20.46,83.07-11.04,5.11,1.69,10.71,1.11,15.37-1.59,4.66-2.7,7.95-7.26,9.02-12.53,5.81-28.82,24.67-53.3,51.04-66.29,26.37-12.98,57.28-12.99,83.66-.02,26.38,12.97,45.25,37.44,51.08,66.25.86,2.84,2.18,5.52,3.9,7.93,2.46,2.93,5.71,5.09,9.38,6.21s7.57,1.15,11.24.09c27.84-9.07,58.3-4.8,82.57,11.56,24.27,16.37,39.65,43.01,41.68,72.21,2.03,29.2-9.52,57.71-31.29,77.28-3.75,3.41-5.97,8.19-6.16,13.26-.19,5.07,1.67,10,5.16,13.68,3.49,3.68,8.31,5.8,13.38,5.89,4.55,0,8.96-1.66,12.37-4.67,29.14-25.6,45.56-62.7,44.92-101.48-.64-38.78-18.29-75.32-48.26-99.94-29.97-24.62-69.24-34.83-107.41-27.93-40.51-115.88-208.06-115.37-248.76-.35-35.84-6.04-72.58,2.86-101.68,24.63-29.09,21.78-47.99,54.52-52.29,90.61-4.3,36.09,6.38,72.36,29.53,100.36-23.55,27.9-34.53,64.3-30.33,100.57,4.2,36.27,23.2,69.2,52.51,90.98,29.31,21.78,66.31,30.49,102.26,24.05,12.69,34.02,38.75,61.35,72.13,75.65,33.38,14.29,71.15,14.29,104.52,0,33.38-14.29,59.44-41.63,72.13-75.65,38.48,6.52,77.88-4.14,107.82-29.17,29.94-25.03,47.42-61.92,47.82-100.95,0-4.97-1.97-9.74-5.49-13.26-3.52-3.52-8.29-5.49-13.26-5.49h0Z"/>
      </g>
    </g>
  </g>
</svg>