<?xml version="1.0" encoding="UTF-8"?>
<svg width="1200pt" height="1200pt" version="1.1" viewBox="0 0 1200 1200" xmlns="http://www.w3.org/2000/svg">
 <path d="m278.21 360.75v-258.12c0-19.73 8.1055-37.742 21.117-50.77 13.125-13.109 31.141-21.219 50.867-21.219h743.63c19.758 0 37.742 8.1055 50.77 21.117 13.109 13.125 21.219 31.141 21.219 50.867v986.07c0 19.758-8.1055 37.742-21.117 50.77-13.125 13.109-31.109 21.219-50.867 21.219h-743.63c-19.785 0-37.828-8.1055-50.855-21.133-13.023-13.023-21.133-31.039-21.133-50.855v-128.81h47.992v128.81c0 6.5625 2.7227 12.57 7.0742 16.922 4.3516 4.3516 10.359 7.0742 16.922 7.0742h743.63c6.6172 0 12.645-2.707 16.98-7.0156 4.3086-4.3359 7.0156-10.359 7.0156-16.98v-986.07c0-6.6172-2.707-12.645-7.0156-16.98-4.3359-4.3086-10.359-7.0156-16.98-7.0156h-743.63c-6.6172 0-12.645 2.707-16.98 7.0156-4.3086 4.3359-7.0156 10.359-7.0156 16.98v239.83c22.195-6.0508 45.539-9.2852 69.633-9.2852 72.938 0 138.97 29.566 186.76 77.359 47.793 47.793 77.359 113.84 77.359 186.76 0 72.938-29.566 138.97-77.359 186.76s-113.82 77.359-186.76 77.359c-39.559 0-77.102-8.7148-110.81-24.309l-20.992 36.355 11.012 6.3516c11.438 6.5625 15.379 21.188 8.8164 32.629l-141.41 244.95c-6.5625 11.438-21.188 15.379-32.629 8.8164l-63.695-36.723c-11.438-6.6172-15.336-21.289-8.7148-32.727l141.41-244.83c6.5625-11.438 21.188-15.379 32.629-8.8164l11.113 6.4062 21.004-36.383c-12.316-8.7031-23.855-18.426-34.496-29.07-47.793-47.793-77.359-113.82-77.359-186.76 0-72.922 29.566-138.97 77.359-186.76 20.098-20.098 43.426-36.965 69.137-49.777zm292.03 472.55h85.934c13.254 0 23.996 10.742 23.996 23.996v96.363h17.859v-216.71c0-13.254 10.742-23.996 23.996-23.996h85.934c13.254 0 23.996 10.742 23.996 23.996v216.71h17.859v-422.9c0-13.254 10.742-23.996 23.996-23.996h85.934c13.254 0 23.996 10.742 23.996 23.996v446.9c0 13.254-10.742 23.996-23.996 23.996h-434.38c-13.254 0-23.996-10.742-23.996-23.996 0-13.254 10.742-23.996 23.996-23.996h20.891v-96.363c0-13.254 10.742-23.996 23.996-23.996zm61.938 47.992h-37.941v72.367h37.941zm151.78-120.35h-37.941v192.71h37.941zm151.78-206.2h-37.941v398.91h37.941zm84.289 348.68v-54.695h47.992v54.695zm-126.02 123.65h126.02v-77.57h47.992v101.57c0 13.254-10.742 23.996-23.996 23.996h-150.01zm-267.98-662.62h370.9v47.992h-370.9zm0-92.086h370.9v47.992h-370.9zm-230.2-92.086h460.41v47.992h-460.41zm-203.05 416.99c0-56.043 22.734-106.84 59.473-143.57 36.738-36.738 87.535-59.473 143.57-59.473v47.992c-42.805 0-81.598 17.363-109.64 45.41-28.051 28.051-45.41 66.84-45.41 109.64zm15.504 299.17-117.48 203.5 22.211 12.828 117.48-203.52c-7.4141-4.2656-14.797-8.5469-22.211-12.812zm340.37-452c-39.105-39.105-93.148-63.297-152.83-63.297-59.668 0-113.73 24.195-152.83 63.297-39.105 39.105-63.297 93.16-63.297 152.83 0 59.684 24.195 113.73 63.297 152.83 40.523 40.523 95.09 63.297 152.83 63.297 59.684 0 113.73-24.195 152.83-63.297 39.105-39.105 63.297-93.148 63.297-152.83 0-59.668-24.195-113.73-63.297-152.83z"/>
</svg>
