<?xml version="1.0" encoding="UTF-8"?>
<svg width="1200pt" height="1200pt" version="1.1" viewBox="0 0 1200 1200" xmlns="http://www.w3.org/2000/svg">
 <g>
  <path d="m600 1080c-127.3 0-249.39-50.57-339.41-140.59-90.02-90.016-140.59-212.11-140.59-339.41s50.57-249.39 140.59-339.41c90.016-90.02 212.11-140.59 339.41-140.59s249.39 50.57 339.41 140.59c90.02 90.016 140.59 212.11 140.59 339.41-0.15234 127.26-50.77 249.26-140.75 339.25s-211.99 140.6-339.25 140.75zm0-900c-111.39 0-218.22 44.25-296.98 123.02s-123.02 185.59-123.02 296.98 44.25 218.22 123.02 296.98 185.59 123.02 296.98 123.02 218.22-44.25 296.98-123.02 123.02-185.59 123.02-296.98c-0.11719-111.36-44.406-218.11-123.15-296.85-78.738-78.742-185.5-123.03-296.85-123.15z"/>
  <path d="m462.99 839.64c31.48-58.016 41.062-125.41 27-189.9h-32.277c-7.6562-0.32031-13.664-6.6758-13.562-14.34v-12.781 0.003906c-0.10156-7.6641 5.9062-14.016 13.562-14.34h23.371-0.003906c-11.875-36.637-19.23-74.59-21.898-113.01 0-103.2 63.301-162.78 161.28-162.78 48.473 1.5352 94.758 20.543 130.32 53.523 2.9219 2.3203 4.7461 5.7539 5.0352 9.4766 0.28906 3.7188-0.98047 7.3945-3.5078 10.141l-47.488 57.238v0.003906c-2.4375 2.6758-5.7578 4.3789-9.3555 4.7969-3.5938 0.42188-7.2188-0.47266-10.203-2.5195-17.734-15.406-39.402-25.586-62.582-29.398-13.766-0.34375-27.02 5.2422-36.387 15.34-9.3672 10.094-13.945 23.727-12.574 37.43 0 27.84 19.621 66.27 30.93 119.76h69.301c3.7969 0.007812 7.4375 1.5195 10.121 4.2109 2.6836 2.6875 4.1914 6.3281 4.1914 10.129v13.559c-0.039063 3.7148-1.582 7.2578-4.2812 9.8164-2.6992 2.5547-6.3164 3.9062-10.031 3.7422h-62.578c3.9062 39.031 1.6406 78.438-6.7227 116.76h127.35c3.7227 0.042969 7.2695 1.6016 9.8281 4.3086 2.5547 2.7109 3.9023 6.3398 3.7305 10.062v72.328c0.074218 7.6406-5.9258 13.957-13.559 14.281h-254.73c-3.7461-0.12891-7.3047-1.6719-9.957-4.3242-2.6484-2.6523-4.1953-6.2109-4.3242-9.957z"/>
 </g>
</svg>
