<?xml version="1.0" encoding="UTF-8"?>
<svg width="1200pt" height="1200pt" version="1.1" viewBox="0 0 1200 1200" xmlns="http://www.w3.org/2000/svg">
 <path d="m916.4 438.42c-5.4375-3.375-7.0312-10.406-3.6562-15.844s10.453-7.0312 15.844-3.6562l260.11 162.52c3.1875 2.0156 5.7188 4.6875 7.5938 7.6875 2.4844 3.9844 3.75 8.4375 3.75 12.844s-1.2656 8.8594-3.6562 12.797c-1.8281 2.9531-4.3594 5.625-7.6875 7.6875h-0.046875 0.046875l-260.11 162.61c-5.3438 3.375-12.469 1.6875-15.844-3.6562-3.375-5.4375-1.7344-12.516 3.6562-15.891l260.11-162.52 0.32812-0.32812c0.046875-0.1875 0.14062-0.375 0.14062-0.60938 0-0.32812-0.046875-0.5625-0.14062-0.70312 0-0.046875-0.14062-0.14062-0.32812-0.23438l-260.11-162.61zm-603.28 177.61v222.14c16.312 2.4844 30.938 10.219 42.094 21.328 13.734 13.734 22.172 32.672 22.172 53.625 0 20.953-8.4844 39.891-22.172 53.531-13.734 13.734-32.672 22.266-53.625 22.266s-39.891-8.5312-53.625-22.266c-13.641-13.734-22.172-32.625-22.172-53.531 0-20.953 8.5312-39.891 22.172-53.625 11.156-11.109 25.734-18.844 42.094-21.328v-222l-278.48 0.9375c-6.375 0-11.531-5.1094-11.531-11.484s5.1562-11.531 11.531-11.531l149.26-0.51562v-231.79c-16.312-2.4844-30.938-10.172-42.094-21.328-13.734-13.734-22.172-32.672-22.172-53.531 0-20.953 8.4844-39.891 22.172-53.625 13.734-13.734 32.672-22.172 53.625-22.172 20.906 0 39.844 8.4844 53.531 22.172 13.734 13.734 22.172 32.672 22.172 53.625 0 20.906-8.4844 39.844-22.172 53.531-11.109 11.156-25.734 18.844-42 21.328v231.66l235.4-0.79688v-230.86c-16.266-2.4844-30.844-10.172-42-21.328-13.734-13.734-22.172-32.672-22.172-53.531 0-20.953 8.4844-39.891 22.172-53.625 13.734-13.734 32.672-22.172 53.531-22.172 20.953 0 39.891 8.4844 53.625 22.172 13.734 13.734 22.172 32.672 22.172 53.625 0 20.906-8.4844 39.844-22.172 53.531-11.156 11.156-25.734 18.844-42.094 21.328v230.81l231-0.79688v-229.97c-16.266-2.4844-30.938-10.172-42-21.328-13.734-13.734-22.172-32.672-22.172-53.531 0-20.953 8.4844-39.891 22.172-53.625 13.734-13.734 32.672-22.172 53.531-22.172 20.953 0 39.891 8.4844 53.625 22.172 13.734 13.734 22.172 32.672 22.172 53.625 0 20.906-8.4844 39.844-22.172 53.531-11.156 11.156-25.734 18.844-42.094 21.328v229.87l359.11-1.2656c6.375 0 11.531 5.1562 11.531 11.531s-5.1562 11.531-11.531 11.531l-488.34 1.6875v222.98c16.312 2.4844 30.938 10.219 42.094 21.328 13.641 13.734 22.172 32.672 22.172 53.625s-8.5312 39.844-22.172 53.531c-13.734 13.734-32.672 22.266-53.625 22.266s-39.891-8.5312-53.625-22.266c-13.734-13.641-22.172-32.625-22.172-53.531 0-20.953 8.4844-39.891 22.172-53.625 11.156-11.109 25.734-18.844 42.094-21.328v-222.94zm-11.531 349.82c14.578 0 27.75-5.9062 37.266-15.469 9.5156-9.5156 15.469-22.734 15.469-37.266 0-14.578-5.9062-27.75-15.469-37.266-9.5156-9.5156-22.688-15.469-37.266-15.469-14.531 0-27.75 5.9062-37.266 15.469-9.5156 9.5156-15.469 22.688-15.469 37.266 0 14.531 5.9062 27.75 15.469 37.266 9.5156 9.5156 22.734 15.469 37.266 15.469zm254.06 0c14.531 0 27.75-5.9062 37.266-15.469 9.5156-9.5156 15.469-22.734 15.469-37.266 0-14.578-5.9062-27.75-15.469-37.266-9.5156-9.5156-22.734-15.469-37.266-15.469-14.578 0-27.75 5.9062-37.266 15.469-9.5156 9.5156-15.469 22.688-15.469 37.266 0 14.531 5.9062 27.75 15.469 37.266 9.5156 9.5156 22.688 15.469 37.266 15.469zm-87.516-716.21c-9.5156-9.5156-22.688-15.469-37.266-15.469-14.531 0-27.75 5.9062-37.266 15.469-9.5156 9.5156-15.422 22.688-15.422 37.266 0 14.531 5.8594 27.75 15.422 37.266 9.5156 9.5156 22.734 15.422 37.266 15.422 14.578 0 27.75-5.8594 37.266-15.422 9.5156-9.5156 15.469-22.734 15.469-37.266 0-14.578-5.9062-27.75-15.469-37.266zm-258.47 0c-9.5156-9.5156-22.734-15.469-37.266-15.469-14.578 0-27.75 5.9062-37.266 15.469-9.5156 9.5156-15.469 22.688-15.469 37.266 0 14.531 5.9062 27.75 15.469 37.266 9.5156 9.5156 22.688 15.422 37.266 15.422 14.531 0 27.75-5.8594 37.266-15.422 9.5156-9.5156 15.422-22.734 15.422-37.266 0-14.578-5.8594-27.75-15.422-37.266zm512.53 0c-9.5156-9.5156-22.688-15.469-37.266-15.469-14.531 0-27.75 5.9062-37.266 15.469-9.5156 9.5156-15.422 22.688-15.422 37.266 0 14.531 5.8594 27.75 15.422 37.266 9.5156 9.5156 22.734 15.422 37.266 15.422 14.578 0 27.75-5.8594 37.266-15.422 9.5156-9.5156 15.469-22.734 15.469-37.266 0-14.578-5.9062-27.75-15.469-37.266z"/>
</svg>
