<?xml version="1.0" encoding="UTF-8"?>
<svg width="1200pt" height="1200pt" version="1.1" viewBox="0 0 1200 1200" xmlns="http://www.w3.org/2000/svg">
 <path d="m884.88 141.07c-72.527-22.598-173.22-36.574-284.88-36.574s-212.35 13.98-284.89 36.574c-64.934 20.23-105.1 45.035-105.1 69.613 0 24.574 40.164 49.379 105.1 69.613 72.527 22.598 173.22 36.574 284.89 36.574s212.35-13.98 284.88-36.574c64.934-20.23 105.1-45.035 105.1-69.613 0-24.574-40.164-49.379-105.1-69.613zm105.1 329.16c0 24.574-40.164 49.379-105.1 69.613-72.527 22.598-173.22 36.574-284.88 36.574s-212.35-13.98-284.89-36.574c-64.934-20.23-105.1-45.035-105.1-69.613v-190.02c23.027 16.43 54.254 30.781 91.883 42.504 76.668 23.891 182.09 38.664 298.09 38.664 116 0 221.43-14.773 298.09-38.664 37.645-11.723 68.855-26.074 91.883-42.504v190.02zm0 259.55v-190.03c-23.027 16.43-54.254 30.781-91.883 42.504-76.668 23.891-182.09 38.664-298.09 38.664s-221.43-14.773-298.09-38.664c-37.645-11.723-68.855-26.074-91.883-42.504v190.03c0 24.574 40.164 49.379 105.1 69.613 72.527 22.598 173.22 36.574 284.89 36.574s212.35-13.98 284.88-36.574c64.934-20.23 105.1-45.035 105.1-69.613zm0 259.55c0 24.574-40.164 49.379-105.1 69.613-72.527 22.598-173.22 36.574-284.88 36.574s-212.35-13.98-284.89-36.574c-64.934-20.23-105.1-45.035-105.1-69.613v-190.03c23.027 16.43 54.254 30.781 91.883 42.504 76.668 23.891 182.09 38.664 298.09 38.664 116 0 221.43-14.773 298.09-38.664 37.645-11.723 68.855-26.074 91.883-42.504v190.03zm44.496 0c0 0.23828 0 0.46875-0.011718 0.70703-0.52734 46.043-52.535 85.199-136.37 111.32-76.668 23.891-182.09 38.664-298.09 38.664s-221.43-14.773-298.09-38.664c-83.832-26.125-135.84-65.27-136.37-111.32 0-0.23828-0.011718-0.46875-0.011718-0.70703v-778.64c0-0.23828 0-0.46875 0.011718-0.70703 0.52734-46.043 52.535-85.199 136.37-111.31 76.668-23.891 182.09-38.664 298.09-38.664s221.43 14.773 298.09 38.664c83.832 26.125 135.84 65.27 136.37 111.31 0 0.23828 0.011718 0.46875 0.011718 0.70703zm-735.45-584.56-1.5469-0.55078c-11.566-4.0781-24.254 1.9922-28.332 13.559-4.0781 11.566 1.9922 24.254 13.559 28.332l1.5469 0.55078c11.566 4.0781 24.254-1.9922 28.332-13.559 4.0781-11.566-1.9922-24.254-13.559-28.332zm0 258c11.566 4.0781 17.641 16.766 13.559 28.332-4.0781 11.566-16.766 17.641-28.332 13.559l-1.5469-0.55078c-11.566-4.0781-17.641-16.766-13.559-28.332 4.0781-11.566 16.766-17.641 28.332-13.559zm0 259.55-1.5469-0.55078c-11.566-4.0781-24.254 1.9922-28.332 13.559-4.0781 11.566 1.9922 24.254 13.559 28.332l1.5469 0.55078c11.566 4.0781 24.254-1.9922 28.332-13.559 4.0781-11.566-1.9922-24.254-13.559-28.332zm76.98-492.72-1.5586-0.55078c-11.566-4.0781-24.254 1.9922-28.332 13.559-4.0781 11.566 1.9922 24.254 13.559 28.332l1.5586 0.55078c11.566 4.0781 24.254-1.9922 28.332-13.559s-1.9922-24.254-13.559-28.332zm0 258c11.566 4.0781 17.641 16.766 13.559 28.332-4.0781 11.566-16.766 17.641-28.332 13.559l-1.5586-0.55078c-11.566-4.0781-17.641-16.766-13.559-28.332 4.0781-11.566 16.766-17.641 28.332-13.559zm0 259.55-1.5586-0.55078c-11.566-4.0781-24.254 1.9922-28.332 13.559-4.0781 11.566 1.9922 24.254 13.559 28.332l1.5586 0.55078c11.566 4.0781 24.254-1.9922 28.332-13.559s-1.9922-24.254-13.559-28.332zm85.859-494.87-1.5586-0.55078c-11.566-4.0781-24.254 1.9922-28.332 13.559-4.0781 11.566 1.9922 24.254 13.559 28.332l1.5586 0.55078c11.566 4.0781 24.254-1.9922 28.332-13.559 4.0781-11.566-1.9922-24.254-13.559-28.332zm0 258c11.566 4.0781 17.641 16.766 13.559 28.332-4.0781 11.566-16.766 17.641-28.332 13.559l-1.5586-0.55078c-11.566-4.0781-17.641-16.766-13.559-28.332 4.0781-11.566 16.766-17.641 28.332-13.559zm0 259.55-1.5586-0.55078c-11.566-4.0781-24.254 1.9922-28.332 13.559-4.0781 11.566 1.9922 24.254 13.559 28.332l1.5586 0.55078c11.566 4.0781 24.254-1.9922 28.332-13.559 4.0781-11.566-1.9922-24.254-13.559-28.332z" fill-rule="evenodd"/>
</svg>
