<?xml version="1.0" encoding="utf-8"?>
<!-- Generator: Adobe Illustrator 28.3.0, SVG Export Plug-In . SVG Version: 6.00 Build 0)  -->
<svg version="1.1" id="Layer_1" xmlns="http://www.w3.org/2000/svg" xmlns:xlink="http://www.w3.org/1999/xlink" x="0px" y="0px"
	 viewBox="0 0 1200 1200" style="enable-background:new 0 0 1200 1200;" xml:space="preserve">
<style type="text/css">
	.st0{display:none;}
</style>
<g id="Layer_2">
	<g id="Layer_3">
		<g id="Layer_8">
			<path d="M802.8,1106.2V977.9c-0.4-23.4,10.2-45.6,28.7-60c79.3-59.1,132.2-146.9,147.5-244.6c0.9-6.6-1.7-13.1-6.9-17.2
				c-5.2-4.1-12.1-5.2-18.3-2.9c-6.2,2.3-10.7,7.8-11.8,14.3c-13.8,88-61.5,167.1-132.9,220.4c-27.9,21.5-44.1,54.8-43.7,90.1v128.2
				c0.1,6.6,3.7,12.7,9.5,15.9c5.8,3.3,12.8,3.3,18.5,0C799.1,1118.9,802.7,1112.8,802.8,1106.2L802.8,1106.2z"/>
		</g>
		<g id="Layer_7">
			<path d="M222.1,813.2v134.6c0,23,9.2,45,25.4,61.2c16.2,16.2,38.3,25.4,61.2,25.4h45.2c13,0,25.5,5.2,34.7,14.4
				c9.2,9.2,14.4,21.7,14.4,34.7v22.7c0,6.7,3.6,12.9,9.4,16.2c5.8,3.3,12.9,3.3,18.8,0c5.8-3.4,9.4-9.5,9.4-16.2v-22.7
				c0-23-9.2-45-25.4-61.2c-16.2-16.2-38.2-25.4-61.2-25.4h-45.2c-13,0-25.5-5.2-34.7-14.4c-9.2-9.2-14.4-21.7-14.4-34.7v-47.6h56.2
				c6.6-0.1,12.7-3.7,15.9-9.5c3.3-5.8,3.3-12.8,0-18.5c-3.3-5.8-9.3-9.4-15.9-9.5h-56.2v-68.2c0-5-2-9.7-5.5-13.3
				c-3.5-3.5-8.3-5.5-13.3-5.5h-72.4c-1.4,0-2.8-0.7-3.5-2c-0.7-1.3-0.7-2.8,0.1-4l91.7-146.4c1.9-3,2.9-6.4,2.9-9.9
				C259.4,550,276.8,488,309.8,434c33-54,80.4-97.7,136.8-126.3c5.8-3.1,9.6-9.1,9.9-15.7c0.3-6.6-2.9-12.9-8.5-16.5
				c-5.5-3.6-12.6-4.1-18.5-1.2c-61.8,31.3-113.8,79-150.3,137.8c-36.6,58.8-56.3,126.5-57.1,195.8l-88.9,141.9
				c-5.1,8.4-7,18.4-5.5,28.1c1.5,9.7,6.5,18.6,13.9,25.1s16.9,10.1,26.8,10.2L222.1,813.2z"/>
		</g>
		<g id="Layer_6">
			<path d="M1054.2,444.6c-5,0-9.7,2-13.3,5.5c-3.5,3.5-5.5,8.3-5.5,13.3c0,30.5-14.8,59.2-39.6,77s-56.7,22.5-85.6,12.7
				c-5.1-1.7-10.7-1.2-15.4,1.5c-4.7,2.7-8,7.3-9,12.6c-5.8,28.8-24.7,53.3-51.1,66.3c-26.4,13-57.3,13-83.7,0
				c-26.4-13-45.2-37.5-51.1-66.3c-1.1-5.3-4.4-9.8-9-12.5c-4.7-2.7-10.3-3.3-15.4-1.6c-27.9,9.4-58.6,5.4-83.1-11
				c-24.5-16.4-40-43.2-41.9-72.6c-1.9-29.4,9.9-58,32-77.5c4-3.6,6.3-8.7,6.3-14.1c0-5.4-2.3-10.5-6.3-14.1
				c-22.1-19.5-33.9-48.1-32-77.5c1.9-29.4,17.4-56.2,41.9-72.6c24.5-16.4,55.2-20.5,83.1-11c5.1,1.7,10.7,1.1,15.4-1.6
				c4.7-2.7,7.9-7.3,9-12.5c5.8-28.8,24.7-53.3,51-66.3c26.4-13,57.3-13,83.7,0c26.4,13,45.2,37.4,51.1,66.3
				c0.9,2.8,2.2,5.5,3.9,7.9c2.5,2.9,5.7,5.1,9.4,6.2s7.6,1.1,11.2,0.1c27.8-9.1,58.3-4.8,82.6,11.6c24.3,16.4,39.6,43,41.7,72.2
				c2,29.2-9.5,57.7-31.3,77.3c-3.8,3.4-6,8.2-6.2,13.3c-0.2,5.1,1.7,10,5.2,13.7c3.5,3.7,8.3,5.8,13.4,5.9c4.6,0,9-1.7,12.4-4.7
				c29.1-25.6,45.6-62.7,44.9-101.5c-0.6-38.8-18.3-75.3-48.3-99.9c-30-24.6-69.2-34.8-107.4-27.9
				c-40.5-115.9-208.1-115.4-248.8-0.4c-35.8-6-72.6,2.9-101.7,24.6c-29.1,21.8-48,54.5-52.3,90.6c-4.3,36.1,6.4,72.4,29.5,100.4
				c-23.6,27.9-34.5,64.3-30.3,100.6c4.2,36.3,23.2,69.2,52.5,91c29.3,21.8,66.3,30.5,102.3,24.1c12.7,34,38.8,61.4,72.1,75.6
				c33.4,14.3,71.1,14.3,104.5,0c33.4-14.3,59.4-41.6,72.1-75.6c38.5,6.5,77.9-4.1,107.8-29.2c29.9-25,47.4-61.9,47.8-101
				c0-5-2-9.7-5.5-13.3C1063.9,446.5,1059.2,444.6,1054.2,444.6L1054.2,444.6z"/>
		</g>
		<g id="Layer_5">
			<path class="st0" d="M851.5,404.2c25.2-20.1,38.3-51.8,34.7-83.8c-3.6-32.1-23.4-60-52.5-74c-29.1-14-63.3-12.1-90.6,5.1
				c-27.3,17.2-43.9,47.2-43.8,79.4c0.1,6.6,3.7,12.7,9.5,15.9c5.8,3.3,12.8,3.3,18.5,0s9.4-9.3,9.5-15.9c0-17.1,7.8-33.4,21.2-44
				c11.7-9.3,26.6-13.6,41.4-12c14.8,1.7,28.4,9.2,37.7,20.8c9.3,11.7,13.6,26.6,11.9,41.4c-1.7,14.8-9.2,28.4-20.9,37.7
				c-33.2,25.2-53.1,64.3-53.8,106c0.2,6.6,3.9,12.6,9.7,15.8c5.8,3.2,12.8,3.1,18.5-0.3c5.7-3.4,9.2-9.5,9.2-16.1
				C812.7,450.3,827.3,422.3,851.5,404.2L851.5,404.2z"/>
		</g>
		<g id="Layer_4">
		</g>
	</g>
</g>
</svg>
