<?xml version="1.0" encoding="utf-8"?>
<!-- Generator: Adobe Illustrator 28.3.0, SVG Export Plug-In . SVG Version: 6.00 Build 0)  -->
<svg version="1.1" id="Layer_1" xmlns="http://www.w3.org/2000/svg" xmlns:xlink="http://www.w3.org/1999/xlink" x="0px" y="0px"
	 viewBox="0 0 1920 1080" style="enable-background:new 0 0 1920 1080;" xml:space="preserve">
<path d="M892.8,587.4c7.2,1.2,15.6,2.4,24,3.6l6,99.6c0,8.4,7.2,14.4,14.4,14.4h45.6c8.4,0,14.4-6,14.4-14.4l6-99.6
	c8.4-1.2,15.6-2.4,24-3.6c6-1.2,8.4-6,8.4-12l-4.8-42c-3.6-26.4-25.2-45.6-51.6-45.6h-36c-26.4,0-48,19.2-51.6,45.6l-4.8,42
	C884.4,580.2,888,586.2,892.8,587.4L892.8,587.4z"/>
<path d="M1009.2,424.2c0,27.2-22,49.2-49.2,49.2c-27.2,0-49.2-22-49.2-49.2c0-27.2,22-49.2,49.2-49.2
	C987.2,375,1009.2,397,1009.2,424.2"/>
</svg>
