<?xml version="1.0" encoding="UTF-8" standalone="no"?>
<!DOCTYPE svg PUBLIC "-//W3C//DTD SVG 1.1//EN" "http://www.w3.org/Graphics/SVG/1.1/DTD/svg11.dtd">
<svg xmlns:xl="http://www.w3.org/1999/xlink" version="1.1" xmlns="http://www.w3.org/2000/svg" xmlns:dc="http://purl.org/dc/elements/1.1/" viewBox="-511 -682 3394 1582" width="3394" height="1582">
  <defs>
    <marker orient="auto" overflow="visible" markerUnits="strokeWidth" id="FilledArrow_Marker" stroke-linejoin="miter" stroke-miterlimit="10" viewBox="-1 -2 4 4" markerWidth="4" markerHeight="4" color="#a5a5a5">
      <g>
        <path d="M 1.904762 0 L 0 -.7142857 L 0 .7142857 Z" fill="currentColor" stroke="currentColor" stroke-width="1"/>
      </g>
    </marker>
    <marker orient="auto" overflow="visible" markerUnits="strokeWidth" id="FilledArrow_Marker_2" stroke-linejoin="miter" stroke-miterlimit="10" viewBox="-1 -2 4 4" markerWidth="4" markerHeight="4" color="#a5a5a5">
      <g>
        <path d="M 1.904762 0 L 0 -.7142857 L 0 .7142857 Z" fill="currentColor" stroke="currentColor" stroke-width="1"/>
      </g>
    </marker>
  </defs>
  <g id="Canvas_1" fill="none" stroke="none" stroke-opacity="1" fill-opacity="1" stroke-dasharray="none">
    <title>Canvas 1</title>
    <rect fill="white" x="-511" y="-682" width="3394" height="1582"/>
    <g id="Canvas_1_Layer_1">
      <title>Layer 1</title>
      <g id="Graphic_2">
        <path d="M -212.74417 -552.7929 C -235.29748 -559.8201 -266.60943 -564.1661 -301.3317 -564.1661 C -336.054 -564.1661 -367.365 -559.8188 -389.92238 -552.7929 C -410.11454 -546.5021 -422.60474 -538.7886 -422.60474 -531.14573 C -422.60474 -523.5041 -410.11516 -515.7906 -389.92238 -509.49857 C -367.36906 -502.4714 -336.0571 -498.12535 -301.3317 -498.12535 C -266.60632 -498.12535 -235.29842 -502.47264 -212.74417 -509.49857 C -192.552 -515.7894 -180.0618 -523.50285 -180.0618 -531.14573 C -180.0618 -538.7874 -192.55138 -546.50085 -212.74417 -552.7929 Z M -180.0618 -450.43585 C -180.0618 -442.7942 -192.55138 -435.08073 -212.74417 -428.7887 C -235.29748 -421.7615 -266.60943 -417.41546 -301.3317 -417.41546 C -336.054 -417.41546 -367.365 -421.76275 -389.92238 -428.7887 C -410.11454 -435.0795 -422.60474 -442.79296 -422.60474 -450.43585 L -422.60474 -509.5253 C -415.44416 -504.41616 -405.73367 -499.9535 -394.0324 -496.3081 C -370.19137 -488.8788 -337.40888 -484.28495 -301.337 -484.28495 C -265.26513 -484.28495 -232.48015 -488.8788 -208.6416 -496.3081 C -196.93535 -499.9535 -187.23015 -504.41616 -180.06927 -509.5253 L -180.06927 -450.43585 Z M -180.0618 -369.72502 L -180.0618 -428.8176 C -187.22238 -423.70845 -196.93287 -419.2458 -208.63415 -415.60036 C -232.47517 -408.1711 -265.25766 -403.57724 -301.32954 -403.57724 C -337.4014 -403.57724 -370.1864 -408.1711 -394.02493 -415.60036 C -405.7312 -419.2458 -415.4364 -423.70845 -422.5973 -428.8176 L -422.5973 -369.72502 C -422.5973 -362.0834 -410.1077 -354.3699 -389.9149 -348.07786 C -367.3616 -341.0507 -336.04965 -336.70464 -301.32425 -336.70464 C -266.59885 -336.70464 -235.29095 -341.05193 -212.7367 -348.07786 C -192.54454 -354.36867 -180.05434 -362.08214 -180.05434 -369.72502 Z M -180.0618 -289.0142 C -180.0618 -281.37256 -192.55138 -273.6591 -212.74417 -267.36704 C -235.29748 -260.33986 -266.60943 -255.99382 -301.3317 -255.99382 C -336.054 -255.99382 -367.365 -260.3411 -389.92238 -267.36704 C -410.11454 -273.65785 -422.60474 -281.37132 -422.60474 -289.0142 L -422.60474 -348.10678 C -415.44416 -342.99763 -405.73367 -338.53498 -394.0324 -334.88954 C -370.19137 -327.4603 -337.40888 -322.8664 -301.337 -322.8664 C -265.26513 -322.8664 -232.48015 -327.4603 -208.6416 -334.88954 C -196.93535 -338.53498 -187.23015 -342.99763 -180.06927 -348.10678 L -180.06927 -289.0142 Z M -166.22513 -289.0142 C -166.22513 -288.9401 -166.22513 -288.86844 -166.22877 -288.79434 C -166.39276 -274.4766 -182.5653 -262.30048 -208.635 -254.17778 C -232.47602 -246.74853 -265.2585 -242.15465 -301.3304 -242.15465 C -337.40226 -242.15465 -370.18724 -246.74853 -394.02578 -254.17778 C -420.09455 -262.30173 -436.2672 -274.47443 -436.432 -288.79434 C -436.432 -288.86844 -436.43564 -288.9401 -436.43564 -289.0142 L -436.43564 -531.14356 C -436.43564 -531.21765 -436.43564 -531.2893 -436.432 -531.3634 C -436.268 -545.68115 -420.0955 -557.8573 -394.02578 -565.9769 C -370.18475 -573.4061 -337.40226 -578 -301.3304 -578 C -265.2585 -578 -232.47353 -573.4061 -208.635 -565.9769 C -182.56622 -557.8529 -166.39358 -545.6802 -166.22877 -531.3634 C -166.22877 -531.2893 -166.22513 -531.21765 -166.22513 -531.14356 Z M -394.92393 -470.7916 L -395.40496 -470.96285 C -399.00157 -472.231 -402.9471 -470.34335 -404.2152 -466.7465 C -405.48335 -463.14987 -403.5957 -459.20435 -399.99884 -457.93624 L -399.5178 -457.76497 C -395.9212 -456.4968 -391.97567 -458.38447 -390.70756 -461.98133 C -389.4394 -465.57795 -391.32706 -469.52347 -394.92393 -470.7916 Z M -394.92393 -390.56275 C -391.3273 -389.2946 -389.4382 -385.3491 -390.70756 -381.7525 C -391.9757 -378.1559 -395.9212 -376.2668 -399.5178 -377.53614 L -399.99884 -377.7074 C -403.59545 -378.97556 -405.48456 -382.92104 -404.2152 -386.51766 C -402.94706 -390.11427 -399.00157 -392.0034 -395.40496 -390.73402 Z M -394.92393 -309.85193 L -395.40496 -310.0232 C -399.00157 -311.29135 -402.9471 -309.4037 -404.2152 -305.80684 C -405.48335 -302.21022 -403.5957 -298.2647 -399.99884 -296.9966 L -399.5178 -296.82532 C -395.9212 -295.55717 -391.97567 -297.44482 -390.70756 -301.0417 C -389.4394 -304.6383 -391.32706 -308.5838 -394.92393 -309.85193 Z M -370.9859 -463.07033 L -371.47055 -463.2416 C -375.06717 -464.50975 -379.0127 -462.6221 -380.2808 -459.02524 C -381.54894 -455.4286 -379.6613 -451.4831 -376.06443 -450.215 L -375.57976 -450.0437 C -371.98315 -448.7756 -368.03763 -450.6632 -366.7695 -454.2601 C -365.5014 -457.85695 -367.389 -461.8022 -370.9859 -463.07033 Z M -370.9859 -382.8415 C -367.38927 -381.57336 -365.50016 -377.62787 -366.7695 -374.03126 C -368.03766 -370.43465 -371.98315 -368.54554 -375.57976 -369.8149 L -376.06443 -369.98617 C -379.66105 -371.2543 -381.55016 -375.1998 -380.2808 -378.7964 C -379.01266 -382.39303 -375.06717 -384.28213 -371.47055 -383.0128 Z M -370.9859 -302.1307 L -371.47055 -302.30196 C -375.06717 -303.5701 -379.0127 -301.68245 -380.2808 -298.0856 C -381.54894 -294.48897 -379.6613 -290.54346 -376.06443 -289.27534 L -375.57976 -289.10407 C -371.98315 -287.83593 -368.03763 -289.72358 -366.7695 -293.32044 C -365.5014 -296.9173 -367.389 -300.86257 -370.9859 -302.1307 Z M -344.2868 -456.01766 L -344.77146 -456.18893 C -348.36807 -457.4571 -352.3136 -455.5694 -353.5817 -451.97256 C -354.84985 -448.37595 -352.9622 -444.43043 -349.36534 -443.1623 L -348.88067 -442.99105 C -345.28405 -441.7229 -341.33854 -443.61055 -340.07042 -447.2074 C -338.80228 -450.80403 -340.68993 -454.74954 -344.2868 -456.01766 Z M -344.2868 -375.78883 C -340.69017 -374.5207 -338.80107 -370.5752 -340.07042 -366.9786 C -341.33857 -363.38197 -345.28405 -361.49286 -348.88067 -362.7622 L -349.36534 -362.9335 C -352.96195 -364.20164 -354.85106 -368.14712 -353.5817 -371.74374 C -352.31356 -375.34035 -348.36807 -377.22946 -344.77146 -375.9601 Z M -344.2868 -295.078 L -344.77146 -295.2493 C -348.36807 -296.51743 -352.3136 -294.62978 -353.5817 -291.0329 C -354.84985 -287.4363 -352.9622 -283.4908 -349.36534 -282.22267 L -348.88067 -282.0514 C -345.28405 -280.78325 -341.33854 -282.6709 -340.07042 -286.26777 C -338.80228 -289.86438 -340.68993 -293.8099 -344.2868 -295.078 Z" fill="black"/>
      </g>
      <g id="Group_13">
        <title>Layer_2</title>
        <g id="Group_14">
          <title>Layer_3</title>
          <g id="Group_19">
            <title>Layer_8</title>
            <g id="Graphic_20">
              <path d="M -247.36267 893.4185 L -247.36267 853.5374 C -247.48705 846.2608 -244.1846 839.3512 -238.44732 834.8795 C -213.79716 816.5046 -197.32849 789.2019 -192.57073 758.8269 C -192.28775 756.7901 -193.09937 754.7533 -194.70706 753.4721 C -196.31163 752.1878 -198.47595 751.8458 -200.40082 752.5703 C -202.32569 753.2949 -203.72503 754.9803 -204.08574 757.0047 C -208.37394 784.37575 -223.21628 808.97615 -245.42225 825.5381 C -254.10748 832.2145 -259.1451 842.5852 -259.02383 853.5405 L -259.02383 893.4217 C -258.9834 895.4771 -257.86393 897.3616 -256.0759 898.3784 C -254.28784 899.3953 -252.09554 899.3953 -250.3106 898.3784 C -248.52256 897.3616 -247.4031 895.4802 -247.36267 893.4217 Z" fill="black"/>
            </g>
          </g>
          <g id="Group_17">
            <title>Layer_7</title>
            <g id="Graphic_18">
              <path d="M -427.9366 802.30285 L -427.9366 844.1649 C -427.9304 851.3077 -425.08817 858.1552 -420.0381 863.2052 C -414.98805 868.2553 -408.1406 871.0975 -400.99776 871.1037 L -386.94528 871.1037 C -382.8965 871.11 -379.0157 872.7207 -376.1517 875.5847 C -373.29083 878.4487 -371.68003 882.3296 -371.6769 886.3783 L -371.6769 893.4341 C -371.6769 895.5176 -370.5668 897.4424 -368.76007 898.4842 C -366.9565 899.5259 -364.7331 899.5259 -362.9295 898.4842 C -361.1259 897.4424 -360.01264 895.5176 -360.01264 893.4341 L -360.01264 886.3783 C -360.01886 879.2386 -362.85797 872.3911 -367.90803 867.3411 C -372.9581 862.291 -379.8024 859.4488 -386.94217 859.4426 L -400.99465 859.4426 C -405.0465 859.4363 -408.92735 857.8256 -411.79133 854.9616 C -414.6553 852.0976 -416.2661 848.2136 -416.27233 844.1649 L -416.27233 829.3568 L -398.7806 829.3568 C -396.7251 829.3194 -394.84066 828.1969 -393.8207 826.4088 C -392.80385 824.6208 -392.80385 822.4285 -393.8207 820.6404 C -394.83755 818.8524 -396.722 817.7329 -398.7806 817.6925 L -416.27233 817.6925 L -416.27233 796.4723 C -416.27233 794.9237 -416.88493 793.4404 -417.97953 792.3489 C -419.0741 791.2543 -420.5574 790.6417 -422.1029 790.6417 L -444.61363 790.6417 C -445.06453 790.6541 -445.48433 790.4178 -445.7082 790.026 C -445.9321 789.6342 -445.9197 789.1522 -445.68024 788.7728 L -417.1648 743.2383 C -416.5833 742.3116 -416.27544 741.2388 -416.27544 740.1473 C -416.3314 720.4726 -410.92374 701.171 -400.6557 684.39135 C -390.38765 667.6117 -375.66038 654.0101 -358.11887 645.1103 C -356.29973 644.1432 -355.1274 642.2868 -355.0341 640.2282 C -354.9408 638.1696 -355.939 636.21674 -357.66175 635.0848 C -359.3845 633.956 -361.5768 633.8192 -363.42703 634.7241 C -382.6322 644.46974 -398.79924 659.2903 -410.1712 677.5781 C -421.5432 695.86594 -427.68473 716.92134 -427.9273 738.4556 L -455.572 782.597 C -457.15483 785.2216 -457.7581 788.3188 -457.2792 791.3445 C -456.7972 794.37015 -455.26416 797.1284 -452.9475 799.1341 C -450.6308 801.1398 -447.67974 802.2593 -444.61674 802.30285 Z" fill="black"/>
            </g>
          </g>
          <g id="Group_15">
            <title>Layer_6</title>
            <g id="Graphic_16">
              <path d="M -169.18931 687.672 C -170.7348 687.672 -172.2181 688.2846 -173.3127 689.3792 C -174.4073 690.4738 -175.0199 691.9571 -175.0199 693.5026 C -175.02612 703.0026 -179.60973 711.9148 -187.3341 717.4438 C -195.05845 722.9727 -204.972 724.4436 -213.9682 721.3899 C -215.55722 720.8519 -217.30173 721.0261 -218.75394 721.8688 C -220.20614 722.7084 -221.2261 724.1357 -221.55262 725.7807 C -223.36243 734.7427 -229.22722 742.3551 -237.43046 746.39144 C -245.6337 750.4278 -255.2456 750.4278 -263.44886 746.39144 C -271.6521 742.3551 -277.5169 734.7427 -279.3298 725.7807 C -279.66565 724.1419 -280.6856 722.7208 -282.1347 721.8843 C -283.5838 721.0447 -285.3221 720.8675 -286.91423 721.393 C -295.59325 724.3316 -305.14297 723.0691 -312.7616 717.9755 C -320.38023 712.8819 -325.19707 704.5387 -325.80034 695.3964 C -326.4005 686.254 -322.71868 677.3511 -315.83704 671.3029 C -314.58385 670.1896 -313.86552 668.5944 -313.86552 666.9183 C -313.86552 665.2422 -314.58074 663.6469 -315.83704 662.5337 C -322.70935 656.4823 -326.38495 647.5825 -325.77857 638.44636 C -325.1753 629.3071 -320.35846 620.97016 -312.74916 615.8797 C -305.13675 610.7861 -295.59325 609.5173 -286.91734 612.4466 C -285.3283 612.97215 -283.5869 612.7918 -282.13782 611.9522 C -280.68873 611.1126 -279.66565 609.6946 -279.33292 608.0558 C -277.52622 599.0938 -271.66143 591.4814 -263.4613 587.442 C -255.26116 583.40565 -245.64925 583.40254 -237.446 587.43575 C -229.24277 591.46896 -223.37487 599.07826 -221.56195 608.03714 C -221.29452 608.9203 -220.88404 609.7537 -220.34918 610.5031 C -219.5842 611.4142 -218.57358 612.0859 -217.43234 612.4342 C -216.2911 612.78246 -215.07834 612.7918 -213.9371 612.4622 C -205.27985 609.6417 -195.80787 610.96954 -188.26076 616.0569 C -180.71366 621.1474 -175.93102 629.4315 -175.29977 638.51166 C -174.6685 647.5918 -178.26015 656.4574 -185.02984 662.543 C -186.19596 663.6034 -186.8863 665.0898 -186.94538 666.6664 C -187.00447 668.243 -186.42607 669.776 -185.3408 670.9204 C -184.25554 672.0647 -182.7567 672.724 -181.1801 672.75195 C -179.76521 672.75195 -178.39386 672.23575 -177.33347 671.29975 C -168.27197 663.3391 -163.16593 651.8023 -163.36495 639.7431 C -163.56397 627.6839 -169.05249 616.32124 -178.3721 608.6653 C -187.6917 601.00935 -199.90327 597.8344 -211.77279 599.98006 C -224.36995 563.9455 -276.47205 564.1041 -289.1283 599.8712 C -300.27327 597.993 -311.6981 600.7606 -320.74716 607.5303 C -329.79312 614.3031 -335.67035 624.48405 -337.0075 635.70676 C -338.34464 646.9295 -335.02354 658.20815 -327.8247 666.91515 C -335.14793 675.5911 -338.5623 686.9102 -337.25627 698.18885 C -335.9502 709.4675 -330.0419 719.7076 -320.92752 726.4804 C -311.81316 733.2532 -300.30747 735.9617 -289.1283 733.9591 C -285.18216 744.5381 -277.07843 753.03675 -266.69843 757.48355 C -256.31844 761.9272 -244.5733 761.9272 -234.19643 757.48355 C -223.81644 753.0399 -215.7127 744.5381 -211.76657 733.9591 C -199.80065 735.9866 -187.54865 732.6717 -178.23838 724.88825 C -168.9281 717.1048 -163.49245 705.6333 -163.36806 693.4964 C -163.36806 691.9509 -163.98066 690.4676 -165.07525 689.373 C -166.16985 688.2784 -167.65315 687.6658 -169.19864 687.6658 Z" fill="black"/>
            </g>
          </g>
        </g>
      </g>
      <g id="Graphic_21">
        <path d="M -435.1181 79.05629 L -435.1181 -1.2098534 C -435.1181 -7.345182 -432.59755 -12.946273 -428.55144 -16.997518 C -424.47003 -21.07395 -418.8677 -23.595873 -412.7336 -23.595873 L -181.49112 -23.595873 C -175.34709 -23.595873 -169.7547 -21.07535 -165.70346 -17.029237 C -161.62702 -12.947828 -159.1051 -7.345493 -159.1051 -1.2114082 L -159.1051 305.4213 C -159.1051 311.56534 -161.62562 317.15772 -165.67174 321.20897 C -169.75315 325.2854 -175.34553 327.80732 -181.48957 327.80732 L -412.73205 327.80732 C -418.8845 327.80732 -424.4952 325.2868 -428.54615 321.2357 C -432.59584 317.186 -435.11776 311.5837 -435.11776 305.4216 L -435.11776 265.36628 L -420.19396 265.36628 L -420.19396 305.4216 C -420.19396 307.4623 -419.3473 309.33043 -417.99413 310.68375 C -416.64094 312.03694 -414.77285 312.88358 -412.732 312.88358 L -181.4895 312.88358 C -179.4318 312.88358 -177.55736 312.0418 -176.20933 310.70197 C -174.8695 309.35366 -174.02773 307.4807 -174.02773 305.4218 L -174.02773 -1.2109106 C -174.02773 -3.2686246 -174.8695 -5.143056 -176.20933 -6.491087 C -177.55764 -7.830908 -179.4306 -8.672689 -181.4895 -8.672689 L -412.732 -8.672689 C -414.7897 -8.672689 -416.66414 -7.830908 -418.01217 -6.491087 C -419.352 -5.142776 -420.19377 -3.2698062 -420.19377 -1.2109106 L -420.19377 73.36769 C -413.2919 71.48611 -406.03276 70.480325 -398.5404 70.480325 C -375.85926 70.480325 -355.32566 79.6743 -340.46466 94.53622 C -325.60274 109.39815 -316.40877 129.93642 -316.40877 152.61194 C -316.40877 175.29307 -325.60274 195.82667 -340.46466 210.68766 C -355.3266 225.54865 -375.85864 234.74356 -398.5404 234.74356 C -410.84183 234.74356 -422.51636 232.03357 -432.99835 227.18433 L -439.5261 238.48944 L -436.1018 240.46456 C -432.54497 242.50526 -431.31946 247.05327 -433.3602 250.61102 L -477.3337 326.78176 C -479.3744 330.33857 -483.9224 331.5641 -487.48013 329.52335 L -507.287 318.1038 C -510.8438 316.0461 -512.05596 311.48368 -509.997 307.92687 L -466.0235 231.79344 C -463.9828 228.23663 -459.4348 227.01112 -455.87707 229.05185 L -452.4213 231.04395 L -445.8898 219.73013 C -449.71966 217.02378 -453.3079 214.0003 -456.61685 210.6904 C -471.4788 195.82847 -480.67275 175.29643 -480.67275 152.61468 C -480.67275 129.93853 -471.4788 109.39995 -456.61685 94.53896 C -450.3671 88.2892 -443.1129 83.04416 -435.1177 79.06008 Z M -344.30713 226.00254 L -317.5847 226.00254 C -313.4632 226.00254 -310.1228 229.34292 -310.1228 233.46444 L -310.1228 263.4299 L -304.5693 263.4299 L -304.5693 196.0408 C -304.5693 191.91928 -301.2289 188.5789 -297.1074 188.5789 L -270.38497 188.5789 C -266.26345 188.5789 -262.92307 191.91928 -262.92307 196.0408 L -262.92307 263.4299 L -257.36955 263.4299 L -257.36955 131.92304 C -257.36955 127.80152 -254.02917 124.46114 -249.90765 124.46114 L -223.18523 124.46114 C -219.0637 124.46114 -215.72333 127.80152 -215.72333 131.92304 L -215.72333 270.89305 C -215.72333 275.01458 -219.0637 278.35496 -223.18523 278.35496 L -358.26197 278.35496 C -362.3835 278.35496 -365.72387 275.01458 -365.72387 270.89305 C -365.72387 266.77153 -362.3835 263.43115 -358.26197 263.43115 L -351.7656 263.43115 L -351.7656 233.46568 C -351.7656 229.34416 -348.42523 226.00378 -344.3037 226.00378 Z M -325.0466 240.92634 L -336.8449 240.92634 L -336.8449 263.4299 L -325.0466 263.4299 Z M -277.84843 203.50177 L -289.64673 203.50177 L -289.64673 263.42773 L -277.84843 263.42773 Z M -230.65025 139.3809 L -242.44855 139.3809 L -242.44855 263.42773 L -230.65025 263.42773 Z M -204.43936 247.80799 L -204.43936 230.79978 L -189.51556 230.79978 L -189.51556 247.80799 Z M -243.6271 286.25874 L -204.43936 286.25874 L -204.43936 262.13723 L -189.51556 262.13723 L -189.51556 293.7219 C -189.51556 297.8434 -192.85594 301.1838 -196.97746 301.1838 L -243.62524 301.1838 Z M -326.95935 80.20748 L -211.62264 80.20748 L -211.62264 95.13128 L -326.95935 95.13128 Z M -326.95935 51.57201 L -211.62264 51.57201 L -211.62264 66.49581 L -326.95935 66.49581 Z M -398.54337 22.936536 L -255.37223 22.936536 L -255.37223 37.86034 L -398.54337 37.86034 Z M -461.6847 152.6056 C -461.6847 135.17822 -454.61523 119.38216 -443.1907 107.96043 C -431.7665 96.53622 -415.97044 89.46645 -398.54555 89.46645 L -398.54555 104.39025 C -411.8564 104.39025 -423.9196 109.78953 -432.6397 118.51115 C -441.36255 127.23401 -446.7606 139.29601 -446.7606 152.60529 Z M -456.8635 245.63683 L -493.3956 308.9181 L -486.4888 312.90715 L -449.9567 249.61966 C -452.2622 248.2932 -454.558 246.96188 -456.8635 245.6356 Z M -351.02054 105.0809 C -363.1808 92.92064 -379.98626 85.39779 -398.54524 85.39779 C -417.09986 85.39779 -433.9112 92.92157 -446.06993 105.0809 C -458.2302 117.24117 -465.75305 134.05035 -465.75305 152.6056 C -465.75305 171.1652 -458.22926 187.97159 -446.06993 200.1303 C -433.4687 212.7315 -416.5003 219.8134 -398.54524 219.8134 C -379.98563 219.8134 -363.17925 212.28963 -351.02054 200.1303 C -338.86027 187.97003 -331.33742 171.16458 -331.33742 152.6056 C -331.33742 134.05097 -338.8612 117.23961 -351.02054 105.0809 Z" fill="black"/>
      </g>
      <g id="Graphic_25">
        <text transform="translate(-372 -677)" fill="black">
          <tspan font-family="Roboto" font-size="64" fill="black" x="0" y="67">Data</tspan>
        </text>
      </g>
      <g id="Graphic_26">
        <text transform="translate(-428.625 -117)" fill="black">
          <tspan font-family="Roboto" font-size="64" fill="black" x="0" y="67">Literature</tspan>
        </text>
      </g>
      <g id="Graphic_27">
        <text transform="translate(-480.8906 484)" fill="black">
          <tspan font-family="Roboto" font-size="64" fill="black" x="0" y="67">Assumptions</tspan>
        </text>
      </g>
      <g id="Line_28">
        <path d="M 387.7408 -203 L 295.38757 -203 L 295.38757 468.88636 L 395.7427 468.88636 L 395.7427 466.5781" stroke="black" stroke-linecap="round" stroke-linejoin="round" stroke-width="15"/>
      </g>
      <g id="Line_29">
        <path d="M 907.3895 -203 L 999.7427 -203 L 999.7427 468.88636 L 899.3876 468.88636 L 899.3876 466.5781" stroke="black" stroke-linecap="round" stroke-linejoin="round" stroke-width="15"/>
      </g>
      <g id="Graphic_30">
        <text transform="translate(477.51434 -6)" fill="black">
          <tspan font-family="Roboto" font-size="72" fill="black" x="10.77539" y="75">Transition </tspan>
          <tspan font-family="Roboto" font-size="72" fill="black" x="0" y="170">Probability</tspan>
          <tspan font-family="Roboto" font-size="72" fill="black" x="68.51953" y="265">Matrix</tspan>
        </text>
      </g>
      <g id="Line_31">
        <line x1="-48.937775" y1="-423.96117" x2="162.95144" y2="-236.33908" marker-end="url(#FilledArrow_Marker)" stroke="#a5a5a5" stroke-linecap="round" stroke-linejoin="round" stroke-width="21"/>
      </g>
      <g id="Line_32">
        <line x1="-34.221807" y1="674.9612" x2="177.6674" y2="487.3391" marker-end="url(#FilledArrow_Marker_2)" stroke="#a5a5a5" stroke-linecap="round" stroke-linejoin="round" stroke-width="21"/>
      </g>
      <g id="Line_33">
        <line x1="-59" y1="125" x2="155.44626" y2="125" marker-end="url(#FilledArrow_Marker_2)" stroke="#a5a5a5" stroke-linecap="round" stroke-linejoin="round" stroke-width="21"/>
      </g>
      <g id="Graphic_34">
        <text transform="translate(1496 -146)" fill="black">
          <tspan font-family="Roboto" font-size="64" fill="black" x="0" y="67">Markov Trace</tspan>
        </text>
      </g>
      <g id="Line_35">
        <line x1="1459" y1="43.69082" x2="1954.98" y2="43.69082" stroke="#a5a5a5" stroke-linecap="round" stroke-linejoin="round" stroke-width="17"/>
      </g>
      <g id="Line_36">
        <line x1="1459" y1="82.69082" x2="1954.98" y2="82.69082" stroke="#a5a5a5" stroke-linecap="round" stroke-linejoin="round" stroke-width="17"/>
      </g>
      <g id="Line_38">
        <line x1="1459" y1="121.69082" x2="1954.98" y2="121.69082" stroke="#a5a5a5" stroke-linecap="round" stroke-linejoin="round" stroke-width="17"/>
      </g>
      <g id="Line_37">
        <line x1="1459" y1="160.69082" x2="1954.98" y2="160.69082" stroke="#a5a5a5" stroke-linecap="round" stroke-linejoin="round" stroke-width="17"/>
      </g>
      <g id="Line_42">
        <line x1="1459.67" y1="44.36082" x2="1955.65" y2="44.36082" stroke="#a5a5a5" stroke-linecap="round" stroke-linejoin="round" stroke-width="17"/>
      </g>
      <g id="Line_41">
        <line x1="1459.67" y1="83.36082" x2="1955.65" y2="83.36082" stroke="#a5a5a5" stroke-linecap="round" stroke-linejoin="round" stroke-width="17"/>
      </g>
      <g id="Line_40">
        <line x1="1459.67" y1="122.36082" x2="1955.65" y2="122.36082" stroke="#a5a5a5" stroke-linecap="round" stroke-linejoin="round" stroke-width="17"/>
      </g>
      <g id="Line_39">
        <line x1="1459.67" y1="161.36082" x2="1955.65" y2="161.36082" stroke="#a5a5a5" stroke-linecap="round" stroke-linejoin="round" stroke-width="17"/>
      </g>
      <g id="Line_46">
        <line x1="1459" y1="201.03082" x2="1954.98" y2="201.03082" stroke="#a5a5a5" stroke-linecap="round" stroke-linejoin="round" stroke-width="17"/>
      </g>
      <g id="Line_45">
        <line x1="1459" y1="240.03082" x2="1954.98" y2="240.03082" stroke="#a5a5a5" stroke-linecap="round" stroke-linejoin="round" stroke-width="17"/>
      </g>
      <g id="Line_44">
        <line x1="1459" y1="279.03082" x2="1954.98" y2="279.03082" stroke="#a5a5a5" stroke-linecap="round" stroke-linejoin="round" stroke-width="17"/>
      </g>
      <g id="Line_43">
        <line x1="1459" y1="318.03082" x2="1954.98" y2="318.03082" stroke="#a5a5a5" stroke-linecap="round" stroke-linejoin="round" stroke-width="17"/>
      </g>
      <g id="Graphic_47">
        <text transform="translate(1409 27.29882)" fill="black">
          <tspan font-family="Helvetica Neue" font-size="28" fill="black" x="0" y="27">0</tspan>
        </text>
      </g>
      <g id="Graphic_52">
        <text transform="translate(1409 66.96882)" fill="black">
          <tspan font-family="Helvetica Neue" font-size="28" fill="black" x="0" y="27">1</tspan>
        </text>
      </g>
      <g id="Graphic_53">
        <text transform="translate(1409 105.29882)" fill="black">
          <tspan font-family="Helvetica Neue" font-size="28" fill="black" x="0" y="27">2</tspan>
        </text>
      </g>
      <g id="Graphic_54">
        <text transform="translate(1409 144.29882)" fill="black">
          <tspan font-family="Helvetica Neue" font-size="28" fill="black" x="0" y="27">3</tspan>
        </text>
      </g>
      <g id="Graphic_55">
        <text transform="translate(1409 183.29882)" fill="black">
          <tspan font-family="Helvetica Neue" font-size="28" fill="black" x="0" y="27">4</tspan>
        </text>
      </g>
      <g id="Graphic_56">
        <text transform="translate(1409 221.62882)" fill="black">
          <tspan font-family="Helvetica Neue" font-size="28" fill="black" x="0" y="27">5</tspan>
        </text>
      </g>
      <g id="Graphic_57">
        <text transform="translate(1409 261.29882)" fill="black">
          <tspan font-family="Helvetica Neue" font-size="28" fill="black" x="0" y="27">6</tspan>
        </text>
      </g>
      <g id="Graphic_58">
        <text transform="translate(1409 301.63882)" fill="black">
          <tspan font-family="Helvetica Neue" font-size="28" fill="black" x="0" y="27">7</tspan>
        </text>
      </g>
      <g id="Graphic_59">
        <text transform="translate(1464 -17.30918)" fill="black">
          <tspan font-family="Helvetica Neue" font-size="28" fill="black" x="0" y="27">S1</tspan>
        </text>
      </g>
      <g id="Graphic_60">
        <text transform="translate(1519 -17.30918)" fill="black">
          <tspan font-family="Helvetica Neue" font-size="28" fill="black" x="0" y="27">S2</tspan>
        </text>
      </g>
      <g id="Graphic_61">
        <text transform="translate(1581.658 -17.30918)" fill="black">
          <tspan font-family="Helvetica Neue" font-size="28" fill="black" x="0" y="27">S3</tspan>
        </text>
      </g>
      <g id="Graphic_62">
        <text transform="translate(1636.658 -17.30918)" fill="black">
          <tspan font-family="Helvetica Neue" font-size="28" fill="black" x="0" y="27">S4</tspan>
        </text>
      </g>
      <g id="Graphic_63">
        <text transform="translate(1699.316 -17.30918)" fill="black">
          <tspan font-family="Helvetica Neue" font-size="28" fill="black" x="0" y="27">COST</tspan>
        </text>
      </g>
      <g id="Graphic_64">
        <text transform="translate(1801 -17.30918)" fill="black">
          <tspan font-family="Helvetica Neue" font-size="28" fill="black" x="0" y="27">QALY</tspan>
        </text>
      </g>
      <g id="Graphic_65">
        <text transform="translate(1897 -17.30918)" fill="black">
          <tspan font-family="Helvetica Neue" font-size="28" fill="black" x="0" y="27">LY</tspan>
        </text>
      </g>
      <g id="Line_67">
        <line x1="1063.3876" y1="155.742" x2="1296.675" y2="155.742" marker-end="url(#FilledArrow_Marker_2)" stroke="#a5a5a5" stroke-linecap="round" stroke-linejoin="round" stroke-width="21"/>
      </g>
      <g id="Graphic_68">
        <text transform="translate(2449.576 -145.8113)" fill="black">
          <tspan font-family="Roboto" font-size="64" fill="black" x="0" y="67">Outcomes</tspan>
        </text>
      </g>
      <g id="Group_69">
        <g id="Graphic_71">
          <path d="M 2479.576 238.48753 C 2449.3423 238.48753 2420.346 226.47715 2398.966 205.0974 C 2377.5864 183.7186 2365.576 154.72128 2365.576 124.48753 C 2365.576 94.25378 2377.5864 65.2574 2398.966 43.87765 C 2420.345 22.497902 2449.3423 10.487527 2479.576 10.487527 C 2509.8098 10.487527 2538.806 22.497902 2560.186 43.87765 C 2581.5656 65.25645 2593.576 94.25378 2593.576 124.48753 C 2593.5398 154.71178 2581.518 183.68678 2560.148 205.0594 C 2538.7776 226.43203 2509.8003 238.4519 2479.576 238.48753 Z M 2479.576 24.737527 C 2453.121 24.737527 2427.7488 35.246902 2409.0433 53.95478 C 2390.3378 72.66265 2379.826 98.0324 2379.826 124.48753 C 2379.826 150.94265 2390.3354 176.31478 2409.0433 195.02028 C 2427.751 213.72578 2453.121 224.23753 2479.576 224.23753 C 2506.031 224.23753 2531.4033 213.72815 2550.1088 195.02028 C 2568.8143 176.3124 2579.326 150.94265 2579.326 124.48753 C 2579.2982 98.03953 2568.7796 72.6864 2550.078 53.98565 C 2531.3776 35.284427 2506.0216 24.766027 2479.576 24.737527 Z" fill="black"/>
        </g>
        <g id="Graphic_70">
          <path d="M 2447.036 181.40203 C 2454.5126 167.62323 2456.7884 151.61715 2453.4486 136.30078 L 2445.7828 136.30078 C 2443.9645 136.2247 2442.5376 134.71527 2442.562 132.89503 L 2442.562 129.85954 L 2442.562 129.86047 C 2442.5377 128.04024 2443.9646 126.53167 2445.7828 126.45472 L 2451.3335 126.45472 L 2451.3325 126.45472 C 2448.5122 117.75343 2446.7654 108.73959 2446.1317 99.61484 C 2446.1317 75.10484 2461.1657 60.95459 2484.4357 60.95459 C 2495.948 61.3192 2506.9408 65.833555 2515.3867 73.666305 C 2516.0807 74.21738 2516.514 75.03286 2516.5826 75.917 C 2516.6513 76.80021 2516.3497 77.67319 2515.7495 78.325485 L 2504.471 91.91951 L 2504.471 91.92044 C 2503.8922 92.55594 2503.1036 92.96043 2502.2492 93.0597 C 2501.3956 93.1599 2500.5347 92.94744 2499.826 92.46132 C 2495.614 88.8024 2490.468 86.38465 2484.9627 85.4793 C 2481.6933 85.39765 2478.5455 86.72432 2476.3208 89.12255 C 2474.096 91.51987 2473.009 94.75771 2473.3345 98.01217 C 2473.3345 104.62417 2477.9945 113.7513 2480.6804 126.45517 L 2497.1394 126.45517 C 2498.041 126.45703 2498.9058 126.81605 2499.543 127.45526 C 2500.1805 128.09354 2500.5386 128.95818 2500.5386 129.8609 L 2500.5386 133.08116 C 2500.5293 133.96342 2500.1628 134.80489 2499.5218 135.41255 C 2498.8807 136.0193 2498.0216 136.34028 2497.1394 136.30133 L 2482.277 136.30133 C 2483.205 145.57119 2482.6668 154.93035 2480.6805 164.03183 L 2510.926 164.03183 C 2511.8103 164.04203 2512.6526 164.4122 2513.2603 165.05512 C 2513.867 165.69896 2514.187 166.56082 2514.1463 167.44484 L 2514.1463 184.62274 C 2514.164 186.43739 2512.739 187.93753 2510.926 188.01448 L 2450.4276 188.01448 C 2449.538 187.98387 2448.6928 187.6174 2448.063 186.98748 C 2447.434 186.35756 2447.0665 185.5124 2447.036 184.6227 Z" fill="black"/>
        </g>
      </g>
      <g id="Line_72">
        <line x1="2044.576" y1="161.5807" x2="2244.8865" y2="161.5807" marker-end="url(#FilledArrow_Marker_2)" stroke="#a5a5a5" stroke-linecap="round" stroke-linejoin="round" stroke-width="21"/>
      </g>
      <g id="Group_73">
        <g id="Graphic_83">
          <path d="M 2676.9866 324.0273 C 2672.7187 313.1971 2670.3783 301.72353 2669.9654 290.06746 L 2684.6047 290.06746 L 2684.6047 282.7249 L 2670.0114 282.7249 C 2671.893 228.8031 2715.122 185.57401 2769.044 183.69236 L 2769.044 198.28565 L 2776.3865 198.28565 L 2776.3865 183.64635 C 2797.772 184.3347 2818.423 191.76898 2835.356 204.84775 L 2839.8534 199.01951 C 2791.6216 161.9386 2722.4645 170.98072 2685.3836 219.21058 C 2670.6066 238.4849 2662.5766 262.11854 2662.5766 286.39403 C 2662.5307 300.20725 2665.1465 313.88262 2670.1945 326.6861 Z" fill="black"/>
        </g>
        <g id="Graphic_82">
          <path d="M 2853.347 222.60793 C 2867.0227 239.7253 2874.7325 260.83428 2875.4198 282.7249 L 2860.8265 282.7249 L 2860.8265 290.06746 L 2875.4198 290.06746 C 2873.5383 343.98927 2830.264 387.21836 2776.3873 389.1 L 2776.3873 374.5067 L 2769.0447 374.5067 L 2769.0447 389.1 C 2737.3797 387.99862 2707.9644 372.34977 2689.377 346.6502 L 2683.411 350.96392 C 2704.1543 379.5999 2737.378 396.57983 2772.7142 396.53283 C 2833.5655 396.53283 2882.8526 347.15362 2882.8526 286.3494 C 2882.8526 261.56873 2874.5005 237.52038 2859.1274 218.06357 Z" fill="black"/>
        </g>
        <g id="Graphic_81">
          <path d="M 2813.5994 364.5132 L 2819.9584 360.8419 L 2823.584 367.12128 L 2817.2248 370.79256 Z" fill="black"/>
        </g>
        <g id="Graphic_80">
          <path d="M 2847.156 333.6118 L 2850.827 327.25274 L 2857.1462 330.9011 L 2853.475 337.26016 Z" fill="black"/>
        </g>
        <g id="Graphic_79">
          <path d="M 2847.156 239.20995 L 2853.673 235.44684 L 2857.3444 241.8059 L 2850.827 245.569 Z" fill="black"/>
        </g>
        <g id="Graphic_78">
          <path d="M 2813.6072 208.2361 L 2817.3014 201.8373 L 2823.6604 205.50858 L 2819.9662 211.90737 Z" fill="black"/>
        </g>
        <g id="Graphic_77">
          <path d="M 2721.7978 205.5125 L 2728.1568 201.8412 L 2731.828 208.20026 L 2725.469 211.87154 Z" fill="black"/>
        </g>
        <g id="Graphic_76">
          <path d="M 2688.255 241.90027 L 2691.9263 235.54122 L 2698.2056 239.16668 L 2694.5344 245.52573 Z" fill="black"/>
        </g>
        <g id="Graphic_75">
          <path d="M 2721.8252 367.16435 L 2725.4736 360.84525 L 2731.8326 364.51653 L 2728.1842 370.83563 Z" fill="black"/>
        </g>
        <g id="Graphic_74">
          <path d="M 2857.1456 176.25777 L 2857.1456 183.60033 L 2870.3164 183.60033 L 2823.9663 229.9505 C 2819.836 228.48198 2815.4765 227.7019 2811.1168 227.6559 L 2810.7956 227.6559 C 2800.0112 227.6559 2789.6862 232.06143 2782.2046 239.86295 L 2772.705 249.63776 L 2763.2974 239.81713 C 2755.8172 232.06163 2745.4916 227.6561 2734.7065 227.61008 L 2734.3852 227.61008 C 2723.8304 227.61008 2713.781 232.06143 2706.6206 239.77112 C 2691.7518 256.01658 2691.9813 280.88946 2707.0795 296.814 L 2710.0165 299.84286 L 2663.6663 346.193 L 2668.852 351.37863 L 2715.11 305.1205 L 2772.7032 365.1004 L 2838.328 296.8146 C 2853.426 280.89044 2853.6098 256.01737 2838.833 239.8187 C 2836.4924 237.29462 2833.8767 235.13786 2830.9397 233.34804 L 2875.5002 188.7875 L 2875.5002 201.9583 L 2882.8428 201.9583 L 2882.8428 176.25934 Z M 2712.36 291.72003 C 2699.9696 278.59525 2699.786 258.1283 2711.947 244.81967 C 2717.7293 238.5785 2725.852 234.99904 2734.388 234.99904 L 2734.6633 234.99904 C 2743.4743 234.99904 2751.8725 238.6245 2757.9754 244.95732 L 2772.7064 260.23905 L 2787.4373 244.9115 C 2793.5408 238.5785 2801.9388 234.99904 2810.7494 234.95322 L 2811.0248 234.95322 C 2813.4112 234.95322 2815.7516 235.27446 2818.046 235.82515 L 2765.3636 288.55452 L 2743.336 266.52684 L 2715.205 294.65766 Z M 2833.4674 244.81967 C 2845.6284 258.17393 2845.445 278.59545 2833.0543 291.72003 L 2772.7083 354.54494 L 2720.255 299.9809 L 2743.338 276.89785 L 2765.3657 298.92553 L 2825.5747 238.71653 C 2828.5117 240.3227 2831.1735 242.3878 2833.468 244.82006 Z" fill="black"/>
        </g>
      </g>
      <g id="Line_84">
        <line x1="2468.576" y1="391.1887" x2="2767.1267" y2="20.208164" stroke="black" stroke-linecap="round" stroke-linejoin="round" stroke-width="12"/>
      </g>
    </g>
  </g>
</svg>
