<svg version="1.1" xmlns="http://www.w3.org/2000/svg" viewBox="0 0 1459.5390625 322" width="4378.6171875" height="966">
  <!-- svg-source:excalidraw -->
  
  <defs>
    <style class="style-fonts">
      @font-face {
        font-family: "Virgil";
        src: url("https://unpkg.com/@excalidraw/excalidraw@undefined/dist/excalidraw-assets/Virgil.woff2");
      }
      @font-face {
        font-family: "Cascadia";
        src: url("https://unpkg.com/@excalidraw/excalidraw@undefined/dist/excalidraw-assets/Cascadia.woff2");
      }
      @font-face {
        font-family: "Assistant";
        src: url("https://unpkg.com/@excalidraw/excalidraw@undefined/dist/excalidraw-assets/Assistant-Regular.woff2");
      }
    </style>
    
  </defs>
  <rect x="0" y="0" width="1459.5390625" height="322" fill="#fafafa"></rect><g stroke-linecap="round" transform="translate(524.9609375 10) rotate(0 462.2890625 151)"><path d="M0 0 C258.08 -2.56, 514.25 -2.65, 924.58 0 M0 0 C327.29 3.29, 653.66 3.47, 924.58 0 M924.58 0 C925.16 80.93, 924.48 165.13, 924.58 302 M924.58 0 C921.89 68.25, 922.98 134.83, 924.58 302 M924.58 302 C701.03 301.36, 477.25 301.15, 0 302 M924.58 302 C691.03 305.51, 458.37 305.24, 0 302 M0 302 C0.67 237.95, 3.1 174.79, 0 0 M0 302 C-2.06 196.72, -2.71 90.87, 0 0" stroke="#1e1e1e" stroke-width="2" fill="none"></path></g><g stroke-linecap="round" transform="translate(10 139) rotate(0 103.4609375 22)"><path d="M0 0 C61.36 -2.72, 121.15 -0.66, 206.92 0 M0 0 C67.8 -2.06, 136.89 -1.44, 206.92 0 M206.92 0 C204.71 13.12, 207.28 25.23, 206.92 44 M206.92 0 C207.7 9.73, 206.1 17.7, 206.92 44 M206.92 44 C163.54 44.55, 118.2 43.52, 0 44 M206.92 44 C149.8 42.7, 91.57 41.56, 0 44 M0 44 C-0.08 36.09, 0.89 25.26, 0 0 M0 44 C0.78 25.76, 0.62 9.3, 0 0" stroke="#1e1e1e" stroke-width="2" fill="none"></path></g><g stroke-linecap="round" transform="translate(266.921875 139) rotate(0 93.01953125 22)"><path d="M0 0 C70.52 -0.12, 144.61 -0.79, 186.04 0 M0 0 C36.28 1.31, 74.22 1.9, 186.04 0 M186.04 0 C185.94 10.81, 184.67 18.44, 186.04 44 M186.04 0 C186.24 13.11, 185.07 27.2, 186.04 44 M186.04 44 C137.1 46.77, 86.77 45.15, 0 44 M186.04 44 C114.07 44.9, 40.41 44.28, 0 44 M0 44 C2.26 32.99, 1.3 22.41, 0 0 M0 44 C-0.86 32.95, 0.11 20.8, 0 0" stroke="#1e1e1e" stroke-width="2" fill="none"></path></g><g stroke-linecap="round" transform="translate(549.9609375 90.23046875) rotate(0 70.76953125 70.76953125)"><path d="M90.2 1.54 C99.64 3.17, 108.76 9.99, 116.32 16.89 C123.88 23.79, 131.47 33.39, 135.55 42.94 C139.62 52.5, 141.34 64.03, 140.78 74.23 C140.21 84.43, 136.83 95.3, 132.16 104.13 C127.49 112.97, 121.01 121.16, 112.74 127.23 C104.47 133.31, 92.81 138.5, 82.54 140.58 C72.26 142.65, 60.72 142.59, 51.1 139.7 C41.49 136.8, 32.5 130.18, 24.84 123.2 C17.18 116.22, 9.32 107.03, 5.14 97.8 C0.95 88.58, -0.98 77.92, -0.29 67.85 C0.4 57.78, 4.27 46.52, 9.28 37.39 C14.28 28.26, 21.62 18.96, 29.72 13.07 C37.82 7.18, 46.93 3.34, 57.86 2.04 C68.79 0.74, 87.88 4.17, 95.3 5.28 C102.72 6.39, 102.79 7.81, 102.37 8.69 M60.68 1.51 C70.39 -0.86, 81.91 1.49, 91.4 4.29 C100.88 7.09, 109.94 11.91, 117.57 18.31 C125.2 24.72, 133.1 33.24, 137.18 42.73 C141.27 52.22, 142.9 64.91, 142.08 75.25 C141.26 85.59, 137.57 95.7, 132.28 104.79 C126.98 113.87, 118.61 123.57, 110.33 129.77 C102.05 135.96, 92.73 140.51, 82.62 141.95 C72.51 143.4, 59.33 141.64, 49.66 138.43 C40 135.23, 32.03 129.5, 24.62 122.73 C17.21 115.96, 9.1 107.25, 5.2 97.82 C1.29 88.39, 0.4 76.33, 1.19 66.15 C1.99 55.97, 5.19 45.66, 9.95 36.72 C14.72 27.78, 21.37 18.57, 29.8 12.5 C38.22 6.43, 55.54 2.22, 60.5 0.32 C65.46 -1.58, 59.69 0.04, 59.56 1.1" stroke="#1e1e1e" stroke-width="2" fill="none"></path></g><g stroke-linecap="round" transform="translate(797.14453125 139) rotate(0 95.83203125 22)"><path d="M0 0 C73.34 -0.62, 142.54 0.05, 191.66 0 M0 0 C38.08 1.1, 76.01 1.39, 191.66 0 M191.66 0 C190.1 7.15, 191.98 16.21, 191.66 44 M191.66 0 C191.34 15.42, 191.57 32.7, 191.66 44 M191.66 44 C116.9 44.71, 45.84 43.34, 0 44 M191.66 44 C122.62 42.98, 55.02 43.05, 0 44 M0 44 C0.57 33.22, -1.2 18.76, 0 0 M0 44 C0.51 27.91, 0.04 11.44, 0 0" stroke="#1e1e1e" stroke-width="2" fill="none"></path></g><g stroke-linecap="round" transform="translate(846.046875 233) rotate(0 46.9296875 22)"><path d="M0 0 C22.93 -2.5, 45.89 -2.5, 93.86 0 M0 0 C19.11 -0.44, 38.48 -0.7, 93.86 0 M93.86 0 C92.16 13.02, 92.22 26.69, 93.86 44 M93.86 0 C92.63 15.44, 93.66 32.44, 93.86 44 M93.86 44 C64.28 45.33, 33.76 44.66, 0 44 M93.86 44 C61.2 42.84, 29.36 43.06, 0 44 M0 44 C1.75 25.71, -0.01 10.2, 0 0 M0 44 C-0.39 34.1, -0.96 25.57, 0 0" stroke="#1e1e1e" stroke-width="2" fill="none"></path></g><g stroke-linecap="round" transform="translate(741.5 45) rotate(0 151.4765625 22)"><path d="M0 0 C109.28 0.25, 220.01 -2.12, 302.95 0 M0 0 C73.69 0.16, 147.69 -0.18, 302.95 0 M302.95 0 C302.99 12.88, 304.01 30.51, 302.95 44 M302.95 0 C302.34 9.44, 303.55 18.58, 302.95 44 M302.95 44 C195.36 42.21, 85.99 44.11, 0 44 M302.95 44 C215.98 41.83, 129.41 43.05, 0 44 M0 44 C-0.99 29.31, 1.01 12.66, 0 0 M0 44 C-0.38 28.07, 0.68 13.86, 0 0" stroke="#1e1e1e" stroke-width="2" fill="none"></path></g><g stroke-linecap="round" transform="translate(1094.453125 139) rotate(0 39.078125 22)"><path d="M0 0 C28.95 -1.22, 53.35 -0.32, 78.16 0 M0 0 C21.64 -0.41, 42.48 0.88, 78.16 0 M78.16 0 C75.97 11.26, 78.93 17.94, 78.16 44 M78.16 0 C77.99 11.5, 77.9 21.89, 78.16 44 M78.16 44 C56.65 45.81, 39.53 44.42, 0 44 M78.16 44 C60.94 43.63, 46.07 44.12, 0 44 M0 44 C-0.27 29.82, -2.07 14.08, 0 0 M0 44 C-0.68 30.91, 0.27 17.24, 0 0" stroke="#1e1e1e" stroke-width="2" fill="none"></path></g><g stroke-linecap="round" transform="translate(1244.609375 139) rotate(0 78.96484375 22)"><path d="M0 0 C50.43 -2.97, 103.75 -1.58, 157.93 0 M0 0 C47.05 -0.66, 96.34 -1.29, 157.93 0 M157.93 0 C159.4 10.32, 156.21 17.12, 157.93 44 M157.93 0 C158.62 9.65, 158.37 18.61, 157.93 44 M157.93 44 C115.07 43.38, 69.71 40.81, 0 44 M157.93 44 C122.38 43.9, 87.43 43.42, 0 44 M0 44 C1.4 24.94, 1.06 9.45, 0 0 M0 44 C0.88 31.84, 1.05 18.47, 0 0" stroke="#1e1e1e" stroke-width="2" fill="none"></path></g><g stroke-linecap="round"><g transform="translate(216.922 161) rotate(0 36.250000000000014 0.25)"><path d="M-0.7 -0.66 C11.31 -0.93, 59.21 -0.3, 71.34 -0.33 M0.87 1.34 C13.38 1.18, 61.96 1.25, 73.7 1.04" stroke="#1e1e1e" stroke-width="2" fill="none"></path></g><g transform="translate(216.922 161) rotate(0 36.250000000000014 0.25)"><path d="M50.27 9.75 C52.97 7.14, 59.05 6.57, 73.7 1.04 M50.27 9.75 C55.52 8.3, 60.29 5.04, 73.7 1.04" stroke="#1e1e1e" stroke-width="2" fill="none"></path></g><g transform="translate(216.922 161) rotate(0 36.250000000000014 0.25)"><path d="M50.15 -7.35 C52.99 -6.54, 59.09 -3.68, 73.7 1.04 M50.15 -7.35 C55.48 -4.86, 60.28 -4.18, 73.7 1.04" stroke="#1e1e1e" stroke-width="2" fill="none"></path></g></g><mask></mask><g stroke-linecap="round"><g transform="translate(453.461 161.5) rotate(0 48.25 -0.25)"><path d="M-0.66 -0.66 C6.82 -0.54, 30.2 -0.55, 46.17 -0.45 C62.14 -0.36, 87.05 -0.06, 95.17 -0.09 M0.93 1.61 C8.15 2.04, 28.93 1.75, 45.05 1.11 C61.17 0.47, 89.38 -2.1, 97.62 -2.22" stroke="#1e1e1e" stroke-width="2" fill="none"></path></g><g transform="translate(453.461 161.5) rotate(0 48.25 -0.25)"><path d="M74.86 7.5 C82.17 3.62, 91.67 -0.77, 97.62 -2.22 M74.86 7.5 C82.89 3.52, 89.23 1.22, 97.62 -2.22" stroke="#1e1e1e" stroke-width="2" fill="none"></path></g><g transform="translate(453.461 161.5) rotate(0 48.25 -0.25)"><path d="M73.94 -9.41 C81.42 -7.1, 91.25 -5.32, 97.62 -2.22 M73.94 -9.41 C82.11 -7.74, 88.76 -4.4, 97.62 -2.22" stroke="#1e1e1e" stroke-width="2" fill="none"></path></g></g><mask></mask><g stroke-linecap="round"><g transform="translate(691.5 161) rotate(0 52.82249999999999 0)"><path d="M-0.16 -0.33 C17.49 -0.27, 87.57 -0.7, 105.19 -0.83 M1.69 -1.55 C19.29 -1.26, 87.05 0.08, 104.27 0.27" stroke="#1e1e1e" stroke-width="2" fill="none"></path></g><g transform="translate(691.5 161) rotate(0 52.82249999999999 0)"><path d="M80.64 8.44 C84.9 7.01, 88.79 5.98, 104.27 0.27 M80.64 8.44 C84.73 5.77, 90.5 4.13, 104.27 0.27" stroke="#1e1e1e" stroke-width="2" fill="none"></path></g><g transform="translate(691.5 161) rotate(0 52.82249999999999 0)"><path d="M80.92 -8.66 C84.95 -6.66, 88.79 -4.28, 104.27 0.27 M80.92 -8.66 C84.92 -7.83, 90.64 -5.98, 104.27 0.27" stroke="#1e1e1e" stroke-width="2" fill="none"></path></g></g><mask></mask><g stroke-linecap="round"><g transform="translate(671.237 210.573) rotate(0 87.40500000000003 22.213499999999996)"><path d="M0.17 0.05 C7.69 7.63, 15.6 37.46, 44.43 44.83 C73.26 52.2, 151.45 44.5, 173.16 44.28 M2.2 -0.97 C10.19 6.3, 17.83 35.17, 46.7 42.92 C75.58 50.67, 154.05 45.31, 175.46 45.52" stroke="#1e1e1e" stroke-width="2" fill="none"></path></g><g transform="translate(671.237 210.573) rotate(0 87.40500000000003 22.213499999999996)"><path d="M152.19 54.67 C157.05 51.48, 162.37 49.1, 175.46 45.52 M152.19 54.67 C157.93 52.4, 164.65 50.27, 175.46 45.52" stroke="#1e1e1e" stroke-width="2" fill="none"></path></g><g transform="translate(671.237 210.573) rotate(0 87.40500000000003 22.213499999999996)"><path d="M151.75 37.57 C156.6 37.86, 162.02 38.95, 175.46 45.52 M151.75 37.57 C157.67 40.22, 164.52 43.01, 175.46 45.52" stroke="#1e1e1e" stroke-width="2" fill="none"></path></g></g><mask></mask><g stroke-linecap="round"><g transform="translate(671.237 111.427) rotate(0 35.13150000000002 -22.213500000000003)"><path d="M0.55 -0.83 C8.19 -8.37, 34.16 -38.37, 45.67 -45.57 C57.18 -52.77, 65.75 -44.03, 69.61 -44.03 M-0.89 1.34 C6.69 -6.07, 33.32 -36.72, 44.93 -44.64 C56.54 -52.55, 64.82 -46.1, 68.77 -46.16" stroke="#1e1e1e" stroke-width="2" fill="none"></path></g><g transform="translate(671.237 111.427) rotate(0 35.13150000000002 -22.213500000000003)"><path d="M56.59 -44.8 C58.73 -44.73, 61.39 -45.63, 68.77 -46.16 M56.59 -44.8 C60.78 -45.69, 65.15 -45.23, 68.77 -46.16" stroke="#1e1e1e" stroke-width="2" fill="none"></path></g><g transform="translate(671.237 111.427) rotate(0 35.13150000000002 -22.213500000000003)"><path d="M58.57 -52.95 C60.2 -50.87, 62.38 -49.78, 68.77 -46.16 M58.57 -52.95 C62.03 -51.14, 65.74 -47.97, 68.77 -46.16" stroke="#1e1e1e" stroke-width="2" fill="none"></path></g></g><mask></mask><g stroke-linecap="round"><g transform="translate(1044.453 67) rotate(0 41.50350000000003 36.25)"><path d="M-0.33 0.91 C13.2 12.79, 67.49 60.15, 81.36 71.85 M1.43 0.07 C15.34 12.14, 69.98 61.33, 83.47 73.31" stroke="#1e1e1e" stroke-width="2" fill="none"></path></g><g transform="translate(1044.453 67) rotate(0 41.50350000000003 36.25)"><path d="M60.26 64.02 C67.27 64.8, 72.67 69.91, 83.47 73.31 M60.26 64.02 C64.49 66.75, 71.18 67.24, 83.47 73.31" stroke="#1e1e1e" stroke-width="2" fill="none"></path></g><g transform="translate(1044.453 67) rotate(0 41.50350000000003 36.25)"><path d="M71.66 51.27 C75.56 55.45, 77.86 64.04, 83.47 73.31 M71.66 51.27 C73.22 56.89, 77.35 60.24, 83.47 73.31" stroke="#1e1e1e" stroke-width="2" fill="none"></path></g></g><mask></mask><g stroke-linecap="round"><g transform="translate(988.809 161) rotate(0 64.072 0.25)"><path d="M0.91 -0.65 C22.06 -0.52, 106.52 0.48, 127.49 0.4 M-0.34 1.37 C20.64 1.19, 104.89 -1.22, 126.47 -1.51" stroke="#1e1e1e" stroke-width="2" fill="none"></path></g><g transform="translate(988.809 161) rotate(0 64.072 0.25)"><path d="M103.17 7.55 C108.4 4.47, 118.06 0.45, 126.47 -1.51 M103.17 7.55 C108.68 6.46, 111.93 3.41, 126.47 -1.51" stroke="#1e1e1e" stroke-width="2" fill="none"></path></g><g transform="translate(988.809 161) rotate(0 64.072 0.25)"><path d="M102.8 -9.55 C108.02 -7.44, 117.8 -6.26, 126.47 -1.51 M102.8 -9.55 C108.42 -7.08, 111.75 -6.58, 126.47 -1.51" stroke="#1e1e1e" stroke-width="2" fill="none"></path></g></g><mask></mask><g stroke-linecap="round"><g transform="translate(939.906 255) rotate(0 93.77700000000004 -35.75)"><path d="M-0.65 -0.65 C30.65 -12.62, 156.36 -60.22, 187.45 -71.91 M0.95 -1.77 C32.2 -13.65, 155.5 -59.59, 186.72 -70.85" stroke="#1e1e1e" stroke-width="2" fill="none"></path></g><g transform="translate(939.906 255) rotate(0 93.77700000000004 -35.75)"><path d="M167.62 -54.72 C171.72 -57.59, 174.85 -63.81, 186.72 -70.85 M167.62 -54.72 C174.43 -60.89, 179.35 -65.96, 186.72 -70.85" stroke="#1e1e1e" stroke-width="2" fill="none"></path></g><g transform="translate(939.906 255) rotate(0 93.77700000000004 -35.75)"><path d="M161.72 -70.77 C167.23 -69.88, 171.73 -72.41, 186.72 -70.85 M161.72 -70.77 C170.27 -71.87, 177.06 -71.82, 186.72 -70.85" stroke="#1e1e1e" stroke-width="2" fill="none"></path></g></g><mask></mask><g stroke-linecap="round"><g transform="translate(1173.109 161.5) rotate(0 47 0)"><path d="M0.35 0.9 C7.8 0.74, 30.03 -1.2, 45.59 -1.61 C61.15 -2.02, 85.6 -1.87, 93.72 -1.57 M-1.19 0.06 C6.6 0.11, 32.12 -0.5, 47.83 -0.65 C63.54 -0.8, 85.21 -0.59, 93.07 -0.81" stroke="#1e1e1e" stroke-width="2" fill="none"></path></g><g transform="translate(1173.109 161.5) rotate(0 47 0)"><path d="M71.07 7.45 C79.16 3.21, 83.99 2.33, 93.07 -0.81 M71.07 7.45 C74.76 5, 79.47 3.48, 93.07 -0.81" stroke="#1e1e1e" stroke-width="2" fill="none"></path></g><g transform="translate(1173.109 161.5) rotate(0 47 0)"><path d="M70.91 -8.62 C78.9 -7.5, 83.79 -3.01, 93.07 -0.81 M70.91 -8.62 C74.74 -7.69, 79.48 -5.82, 93.07 -0.81" stroke="#1e1e1e" stroke-width="2" fill="none"></path></g></g><mask></mask><g transform="translate(894.8600692749023 15) rotate(0 92.38993072509766 12.5)"><text x="92.38993072509766" y="0" font-family="Virgil, Segoe UI Emoji" font-size="20px" fill="#1e1e1e" text-anchor="middle" style="white-space: pre;" direction="ltr" dominant-baseline="text-before-edge">PAN-DA Framework</text></g><g transform="translate(34.191017150878906 148.5) rotate(0 79.2699203491211 12.5)"><text x="79.2699203491211" y="0" font-family="Virgil, Segoe UI Emoji" font-size="20px" fill="#1e1e1e" text-anchor="middle" style="white-space: pre;" direction="ltr" dominant-baseline="text-before-edge">Decision Problem</text></g><g transform="translate(295.09146881103516 148.5) rotate(0 64.84993743896484 12.5)"><text x="64.84993743896484" y="0" font-family="Virgil, Segoe UI Emoji" font-size="20px" fill="#1e1e1e" text-anchor="middle" style="white-space: pre;" direction="ltr" dominant-baseline="text-before-edge">Parameterize</text></g><g transform="translate(578.4488783261457 135.9583845517317) rotate(0 42.23997497558594 25)"><text x="42.23997497558594" y="0" font-family="Virgil, Segoe UI Emoji" font-size="20px" fill="#1e1e1e" text-anchor="middle" style="white-space: pre;" direction="ltr" dominant-baseline="text-before-edge">RShiny/G</text><text x="42.23997497558594" y="25" font-family="Virgil, Segoe UI Emoji" font-size="20px" fill="#1e1e1e" text-anchor="middle" style="white-space: pre;" direction="ltr" dominant-baseline="text-before-edge">UI</text></g><g transform="translate(821.2866363525391 148.5) rotate(0 71.68992614746094 12.5)"><text x="71.68992614746094" y="0" font-family="Virgil, Segoe UI Emoji" font-size="20px" fill="#1e1e1e" text-anchor="middle" style="white-space: pre;" direction="ltr" dominant-baseline="text-before-edge">Microsimulation</text></g><g transform="translate(858.7065887451172 242.5) rotate(0 34.26997375488281 12.5)"><text x="34.26997375488281" y="0" font-family="Virgil, Segoe UI Emoji" font-size="20px" fill="#1e1e1e" text-anchor="middle" style="white-space: pre;" direction="ltr" dominant-baseline="text-before-edge">Markov</text></g><g transform="translate(766.2566757202148 54.5) rotate(0 126.71988677978516 12.5)"><text x="126.71988677978516" y="0" font-family="Virgil, Segoe UI Emoji" font-size="20px" fill="#1e1e1e" text-anchor="middle" style="white-space: pre;" direction="ltr" dominant-baseline="text-before-edge">Discrete Event Simulation</text></g><g transform="translate(1116.4012603759766 148.5) rotate(0 17.129989624023438 12.5)"><text x="17.129989624023438" y="0" font-family="Virgil, Segoe UI Emoji" font-size="20px" fill="#1e1e1e" text-anchor="middle" style="white-space: pre;" direction="ltr" dominant-baseline="text-before-edge">Run</text></g><g transform="translate(1275.0942687988281 148.5) rotate(0 48.479949951171875 12.5)"><text x="48.479949951171875" y="0" font-family="Virgil, Segoe UI Emoji" font-size="20px" fill="#1e1e1e" text-anchor="middle" style="white-space: pre;" direction="ltr" dominant-baseline="text-before-edge">Summarise</text></g></svg>