<?xml version="1.0" encoding="utf-8"?>
<!-- Generator: Adobe Illustrator 28.3.0, SVG Export Plug-In . SVG Version: 6.00 Build 0)  -->
<svg version="1.1" id="Layer_1" xmlns="http://www.w3.org/2000/svg" xmlns:xlink="http://www.w3.org/1999/xlink" x="0px" y="0px"
	 viewBox="0 0 5309.6 2857.5" style="enable-background:new 0 0 5309.6 2857.5;" xml:space="preserve">
<style type="text/css">
	.st0{display:none;fill:#FAFAFA;}
	.st1{fill:none;stroke:#1E1E1E;stroke-width:6;stroke-linecap:round;stroke-miterlimit:12;}
	.st2{fill:#1E1E1E;}
	.st3{font-family:'ArialMT';}
	.st4{font-size:60px;}
</style>
<rect id="unknown" class="st0" width="5309.6" height="2857.5"/>
<g id="b-DES-Oth-ParamRunSum" transform="translate(1120 24.5) rotate(0 319.93359375 57)">
	<path class="st1" d="M2203.3,42c768.5,3.9,1539.6,3.5,1956.2,0 M2203.3,42c691.1-1.3,1382.9-2.6,1956.2,0 M4159.6,42
		c5.3,85.6-0.7,179.7,0,348.9 M4159.6,42c0.6,124.3,2.5,252.5,0,348.9 M4159.6,391c-673.5,1.9-1347.3,0-1956.2,0 M4159.6,391
		c-781.8,2.4-1564.4,2-1956.2,0 M2203.3,391c0.3-73.9,5-150.1,0-348.9 M2203.3,391c-3.2-71.4-3.2-147.9,0-348.9"/>
</g>
<g id="b-DES-R-ParamRunSum" transform="translate(1120 158.5) rotate(0 319.93359375 57)">
	<path class="st1" d="M2205.8,306.7c579.2,5.4,1155.8,8.6,1953.8,0 M2205.8,306.7c417.2,4,833.1,4.3,1953.8,0 M4159.6,306.7
		c-2.5,121.7,2.7,252.3,0,352.3 M4159.6,306.7c0.7,135,2.9,272.3,0,352.3 M4159.6,659c-692.9-0.7-1388.8,2.2-1953.8,0 M4159.6,659
		c-515.8-0.4-1031.8-0.6-1953.8,0 M2205.8,659c7.2-104.3,8.8-224.9,0-352.3 M2205.8,659c1.7-114.2-0.7-220.1,0-352.3"/>
</g>
<g id="b-Markov-Oth-ParamRunSum" transform="translate(1120 292.5) rotate(0 319.93359375 57)">
	<path class="st1" d="M2206.2,585c541.9-5.1,1088.6-8.9,1953.3,0 M2206.2,585c620.7-1.6,1242.4,0.2,1953.3,0 M4159.6,585
		c-0.5,111.9,5.7,225.1,0,342 M4159.6,585c-3.1,127.4-1.4,255.6,0,342 M4159.6,927c-606.4,2.6-1209.5,2.5-1953.3,0 M4159.6,927
		c-650.4-1.3-1300.3-0.6-1953.3,0 M2206.2,927c5-65.4-5.8-140.7,0-342 M2206.2,927c0.3-111.1,6-222.7,0-342"/>
</g>
<g id="b-Markov-Excel-ParamRunSum" transform="translate(1120 426.5) rotate(0 319.93359375 57)">
	<path class="st1" d="M2214.1,853c406.4,7,807,6.2,1945.5,0 M2214.1,853c463.8,4.4,930.6,5.2,1945.5,0 M4159.6,853
		c0.1,125.8,3.3,248.6,0,342 M4159.6,853c-1.5,77.4-0.3,152.4,0,342 M4159.6,1195c-577.5,0.9-1154.2-0.7-1945.5,0 M4159.6,1195
		c-592.8-5.5-1184.3-5.7-1945.5,0 M2214.1,1195c3.3-111.8-1.2-211.6,0-342 M2214.1,1195c-2.8-70.7-3.2-149.2,0-342"/>
</g>
<g id="b-Markov-R-ParamRunSum" transform="translate(1120 560.5) rotate(0 319.93359375 57)">
	<path class="st1" d="M2219.4,1123.7c757.1-7.7,1512.1-7.1,1940.2,0 M2219.4,1123.7c593.9,7.7,1189.1,7.7,1940.2,0 M4159.6,1123.7
		c2.3,88.6,2.9,162.5,0,339.3 M4159.6,1123.7c0.8,84-0.2,164.7,0,339.3 M4159.6,1463c-665.3-3.5-1334.6-2.5-1940.2,0 M4159.6,1463
		c-563.4-3.5-1125.9-3.5-1940.2,0 M2219.4,1463c-8.4-122.7-1.5-252.4,0-339.3 M2219.4,1463c6-130.9,0.9-258.7,0-339.3"/>
</g>
<g id="b-Micro-Oth-ParamRunSum" transform="translate(1120 694.5) rotate(0 319.93359375 57)">
	<path class="st1" d="M2225,1393.1c434.3-3.6,871.4-3.9,1934.6,0 M2225,1393.1c456.7,3.7,912.9,2.8,1934.6,0 M4159.6,1393.1
		c6.2,91.8-3.6,171.7,0,338 M4159.6,1393.1c2.2,96.7,0.4,194.2,0,338 M4159.6,1731.1c-544.4,8.3-1087,7.3-1934.6,0 M4159.6,1731.1
		c-465.6-6.9-931.4-5.1-1934.6,0 M2225,1731.1c-2.1-129.9-8.3-257.7,0-338 M2225,1731.1c-0.4-74,2.6-145.3,0-338"/>
</g>
<g id="b-Micro-R-ParamRunSum" transform="translate(1120 828.5) rotate(0 319.93359375 57)">
	<path class="st1" d="M2224.7,1661.9c723.3,5.1,1445.8,5,1934.9,0 M2224.7,1661.9c401.5-3.3,801.8-4.5,1934.9,0 M4159.6,1661.9
		c6.4,107.3-1.4,222.9,0,337.2 M4159.6,1661.9c1.8,106.2,2.8,212.1,0,337.2 M4159.6,1999c-513.7-2.6-1029.2-4.1-1934.9,0
		 M4159.6,1999c-489.1,1-975.1,1.9-1934.9,0 M2224.7,1999c4.6-136.8,8.2-268.8,0-337.2 M2224.7,1999c-5.4-100.1-4.8-204.8,0-337.2"
		/>
</g>
<g id="b-Software" transform="translate(669.875 10) rotate(0 200.0625 466.25)">
	<path class="st1" d="M1339.8,20c422.5-1,846.9-4.4,1200.4,0 M1339.8,20c306.8-2.4,610.9-0.9,1200.4,0 M2540.1,20
		c7.6,1009,9.1,2021.1,0,2797.5 M2540.1,20c6.1,963.5,5.9,1925.5,0,2797.5 M2540.1,2817.5c-479.6,1.9-961.5,0.6-1200.4,0
		 M2540.1,2817.5c-267.5-5.2-534-4.8-1200.4,0 M1339.8,2817.5c-3.9-591.5-4-1186.9,0-2797.5 M1339.8,2817.5
		c2-1115.1,1.2-2229.2,0-2797.5"/>
</g>
<g id="b-Model" transform="translate(266.921875 33) rotate(0 176.4765625 445.5)">
	<path class="st1" d="M533.8,66c226.3,1.7,448.5,2.4,1058.9,0 M533.8,66c372.5-4.7,747.6-2.7,1058.9,0 M1592.7,66
		c6.3,1027.4,8,2056.6,0,2673 M1592.7,66c1.6,949.2,0.7,1900,0,2673 M1592.7,2739c-279.8-2-560.7-2.7-1058.9,0 M1592.7,2739
		c-328.6,2.5-657.9-0.9-1058.9,0 M533.8,2739c-0.7-848.6-2.6-1690.6,0-2673 M533.8,2739c6.8-779,7.3-1559.4,0-2673"/>
</g>
<g id="b-Decision" transform="translate(10 461.5) rotate(0 103.4609375 22)">
	<path class="st1" d="M20,923c194.1-5.3,392.6,2.5,620.8,0 M20,923c198.6,3.8,401,5.2,620.8,0 M640.8,923c-1.9,49.9,1.6,101.3,0,132
		 M640.8,923c-0.6,39.9,2.9,80.8,0,132 M640.8,1055c-209.6-3.1-417,0.1-620.8,0 M640.8,1055c-126.2,6-259.6,4-620.8,0 M20,1055
		c-4.1-42.7,7-86.4,0-132 M20,1055c-0.5-30.7-3.5-58.4,0-132"/>
</g>
<g id="b-Micro" transform="translate(347.56640625 796.5) rotate(0 95.83203125 22)">
	<path class="st1" d="M695.1,1593c131.8,1,278,5,575,0 M695.1,1593c206.3,4.2,413.2,4.5,575,0 M1270.1,1593c0.2,32,2.6,59.3,0,132
		 M1270.1,1593c-0.4,42.1-0.5,79.2,0,132 M1270.1,1725c-177.9-8-349.3-9-575,0 M1270.1,1725c-176.4,2.5-357.7,5.8-575,0 M695.1,1725
		c-0.8-22.5-1.6-60.9,0-132 M695.1,1725c0.5-53.8,3.4-103.1,0-132"/>
</g>
<g id="b-Markov" transform="translate(396.46875 461.5) rotate(0 46.9296875 22)">
	<path class="st1" d="M792.9,923c83.5,5.8,173.8,6,281.6,0 M792.9,923c71.2,1.7,140.9-3.2,281.6,0 M1074.5,923
		c2.5,35.4,0.4,63.9,0,132 M1074.5,923c2.7,44.3,0.7,91,0,132 M1074.5,1055c-86.2-0.7-168.8-0.7-281.6,0 M1074.5,1055
		c-105.3,3.1-204.5,0-281.6,0 M792.9,1055c7-51.4-2.9-96.3,0-132 M792.9,1055c-2.5-30.8-0.4-64.8,0-132"/>
</g>
<g id="b-DES" transform="translate(291.921875 126.5) rotate(0 151.4765625 22)">
	<path class="st1" d="M583.8,253c216.6,3.9,431,0.7,908.9,0 M583.8,253c237.3-2.5,469.1-5.3,908.9,0 M1492.7,253
		c3.5,38.3,0,78,0,132 M1492.7,253c-1.5,38.1-0.3,73.9,0,132 M1492.7,385c-218.3-9.1-437.1-2.3-908.9,0 M1492.7,385
		c-352.8-5.3-708.3-4-908.9,0 M583.8,385c-0.6-32.2,5.3-59,0-132 M583.8,385c2.8-42.6,2.4-84,0-132"/>
</g>
<g id="b-Micro-R" transform="translate(855.16015625 863.5) rotate(0 14.77734375 22)">
	<path class="st1" d="M1710.3,1727c19.1,1.5,35.2-1.5,88.7,0 M1710.3,1727c30.5-1.5,58-0.6,88.7,0 M1799,1727
		c0.6,41.5,1.6,82.7,0,132 M1799,1727c1.2,35.2,0.5,69.3,0,132 M1799,1859c-25.1,0.4-42.8,2.7-88.7,0 M1799,1859
		c-34.3-1.2-68-1.2-88.7,0 M1710.3,1859c-2.7-37.5-2-79.8,0-132 M1710.3,1859c0.4-38.1,1-79.7,0-132"/>
</g>
<g id="b-Micro-Oth" transform="translate(694.875 715) rotate(0 175.0625 36.5)">
	<path class="st1" d="M1389.8,1430c269.8-3.6,533.6-0.2,1050.4,0 M1389.8,1430c377.8-6,758.4-4.6,1050.4,0 M2440.1,1430
		c1,78,0.1,148.7,0,219 M2440.1,1430c-0.7,87.2-2.6,173.6,0,219 M2440.1,1649c-233.9-3.8-465.1-2.8-1050.4,0 M2440.1,1649
		c-224.5,3.4-447.4,1.8-1050.4,0 M1389.8,1649c5.6-90,1.5-174.7,0-219 M1389.8,1649c0.3-48.3-4.6-96.5,0-219"/>
</g>
<g id="b-Markov-R" transform="translate(855.16015625 595.5) rotate(0 14.77734375 22)">
	<path class="st1" d="M1710.3,1191c29.7-1.5,63.5,1.6,88.7,0 M1710.3,1191c33.2,0.1,68.4,1,88.7,0 M1799,1191
		c1.4,46.3-0.9,96.8,0,132 M1799,1191c0.1,34-0.5,68.5,0,132 M1799,1323c-25.7,2.7-52.5-2.6-88.7,0 M1799,1323
		c-26.8-1.7-56.1,1.1-88.7,0 M1710.3,1323c-0.9-37.8,0.4-79.2,0-132 M1710.3,1323c0.5-53,1-102.1,0-132"/>
</g>
<g id="b-Markov-Excel" transform="translate(832.78515625 461.5) rotate(0 37.15234375 22)">
	<path class="st1" d="M1665.6,923c69.2,3.1,147.1,6.3,222.9,0 M1665.6,923c82.3,1.7,166.9,2.9,222.9,0 M1888.5,923
		c-1.2,38.9,5.9,79.7,0,132 M1888.5,923c-1.7,42.5-2.2,88.1,0,132 M1888.5,1055c-40.9,6.9-97.6,2.4-222.9,0 M1888.5,1055
		c-75.1,2-142,1.7-222.9,0 M1665.6,1055c0.1-30.8-5.7-55.7,0-132 M1665.6,1055c-3.6-37.1,1.7-80.8,0-132"/>
</g>
<g id="b-Markov-Oth" transform="translate(770.40625 313) rotate(0 99.53125 36.5)">
	<path class="st1" d="M1540.8,626c215.2,6.1,431.6,6.7,597.2,0 M1540.8,626c133.2,2.2,267.2,1.2,597.2,0 M2138,626
		c-1.1,70.9-1.2,131.8,0,219 M2138,626c-1.6,64.3,0.1,130.5,0,219 M2138,845c-180.6,0-371.1,6.8-597.2,0 M2138,845
		c-128.4-2.2-257.3-7.2-597.2,0 M1540.8,845c0.8-90,6.5-171.2,0-219 M1540.8,845c1.3-80.2-3.4-168,0-219"/>
</g>
<g id="b-DES-R" transform="translate(855.16015625 193.5) rotate(0 14.77734375 22)">
	<path class="st1" d="M1710.3,387c23.7,2.4,45.8-2.5,88.7,0 M1710.3,387c22.2,0.8,43.2-0.1,88.7,0 M1799,387c2.9,44.3,0.9,91,0,132
		 M1799,387c-1.5,38.4-1.8,76.7,0,132 M1799,519c-35,0.9-63.9-2.1-88.7,0 M1799,519c-32.7-0.1-69.3,1.4-88.7,0 M1710.3,519
		c-2.4-30.8-0.3-64.8,0-132 M1710.3,519c1.9-45-0.6-87.3,0-132"/>
</g>
<g id="b-DES-Oth" transform="translate(785.85546875 45) rotate(0 84.08203125 36.5)">
	<path class="st1" d="M1571.7,90c135.8,1.2,256.7-6.5,504.5,0 M1571.7,90c145.6-1.9,287.8-0.9,504.5,0 M2076.2,90
		c-2.9,63.5-0.5,122.5,0,219 M2076.2,90c-0.7,49.9-0.7,107.4,0,219 M2076.2,309c-195.1-2.9-397.2,0.7-504.5,0 M2076.2,309
		c-107.7,2.9-212.1,3.6-504.5,0 M1571.7,309c5.6-70.7,4.8-139.1,0-219 M1571.7,309c-4.1-49.4-1.2-94.7,0-219"/>
</g>
<g id="b-Micro-R-Param" transform="translate(1145 863.5) rotate(0 93.01953125 22)">
	<path class="st1" d="M2290,1727c189.5-9.4,367.1-5.6,558.1,0 M2290,1727c176.3-3.2,353.3-3.7,558.1,0 M2848.1,1727
		c3.3,35.4,0.7,66.6,0,132 M2848.1,1727c-3.8,33.6,0.9,69.2,0,132 M2848.1,1859c-216.7-4.1-431.3-4.3-558.1,0 M2848.1,1859
		c-172.1,2.2-341.4,0.2-558.1,0 M2290,1859c0.8-34.5,2.9-83.6,0-132 M2290,1859c-3.4-47.9-1.4-97.8,0-132"/>
</g>
<g id="b-Micro-Oth-Param" transform="translate(1145 729.5) rotate(0 93.01953125 22)">
	<path class="st1" d="M2290,1459c196.9-7.4,402.3-3.1,558.1,0 M2290,1459c192,0.8,383.7-1.6,558.1,0 M2848.1,1459
		c-0.2,52.1-4,102.6,0,132 M2848.1,1459c0.5,31.4,2.8,61.6,0,132 M2848.1,1591c-123.5,6.5-242,1.7-558.1,0 M2848.1,1591
		c-219.7-5.2-444.1-3.9-558.1,0 M2290,1591c3.5-27.8-6.3-55.5,0-132 M2290,1591c1.4-51.7-0.4-102.4,0-132"/>
</g>
<g id="b-Markov-R-Param" transform="translate(1145 595.5) rotate(0 93.01953125 22)">
	<path class="st1" d="M2290,1191c211.2,3.4,430.1,7,558.1,0 M2290,1191c199.6-0.4,395.5,3.2,558.1,0 M2848.1,1191
		c-0.2,31.3-2.4,65.1,0,132 M2848.1,1191c0.7,43.8,1.5,79.6,0,132 M2848.1,1323c-171.6-10-353.2,1.2-558.1,0 M2848.1,1323
		c-164.1,5.7-325.5,2.8-558.1,0 M2290,1323c1.9-56.8,3.9-98.1,0-132 M2290,1323c0.7-29.4,1.4-57.8,0-132"/>
</g>
<g id="b-Markov-Excel-Param" transform="translate(1145 461.5) rotate(0 93.01953125 22)">
	<path class="st1" d="M2290,923c206.4,4.1,417.1,6.5,558.1,0 M2290,923c172.6-3.5,349.3-3.5,558.1,0 M2848.1,923
		c-3.5,41-4.6,88.5,0,132 M2848.1,923c2.8,30.1-2.5,55.2,0,132 M2848.1,1055c-186.7,5-357.1,4.3-558.1,0 M2848.1,1055
		c-128.7-2.6-261,0.2-558.1,0 M2290,1055c-6.1-35.2,4.4-83.5,0-132 M2290,1055c-1.7-29.2-2.2-56.8,0-132"/>
</g>
<g id="b-Markov-Oth-Param" transform="translate(1145 327.5) rotate(0 93.01953125 22)">
	<path class="st1" d="M2290,655c125,3.5,251.5,1.4,558.1,0 M2290,655c164.4,4,329.8,2,558.1,0 M2848.1,655c-3,35.5,0.5,74.8,0,132
		 M2848.1,655c3.6,38.5,1.4,83,0,132 M2848.1,787c-119.8,1-240.7-8.9-558.1,0 M2848.1,787c-217.9-1-432.8,1.1-558.1,0 M2290,787
		c3.4-44.5-5.8-104.4,0-132 M2290,787c0.6-42.5,2.8-83.8,0-132"/>
</g>
<g id="b-DES-R-Param" transform="translate(1145 193.5) rotate(0 93.01953125 22)">
	<path class="st1" d="M2290,387c138.2,2.5,271.7-1.1,558.1,0 M2290,387c195.1,0.8,385.1,2,558.1,0 M2848.1,387
		c-5.4,38.9-6.4,77.2,0,132 M2848.1,387c-1.5,48.6,1.9,93.7,0,132 M2848.1,519c-209.1-0.2-434.1,5.7-558.1,0 M2848.1,519
		c-144.2,2.6-283.9,2.2-558.1,0 M2290,519c6.5-49-3.4-87,0-132 M2290,519c-1.4-35.8-2.3-77.6,0-132"/>
</g>
<g id="b-DES-Oth-Param" transform="translate(1145 59.5) rotate(0 93.01953125 22)">
	<path class="st1" d="M2290,119c162.5-1.9,318.3,0.2,558.1,0 M2290,119c155.7-4.6,313.8-5.9,558.1,0 M2848.1,119
		c0.1,26.2,0.1,67.4,0,132 M2848.1,119c1.7,52.1-1.3,105.1,0,132 M2848.1,251c-119.4,1.4-232.3,2.8-558.1,0 M2848.1,251
		c-176.8-4.3-356.8-3.3-558.1,0 M2290,251c-6.2-32.9-0.5-57.4,0-132 M2290,251c2.4-35.6-0.9-65.8,0-132"/>
</g>
<g id="b-Micro-R-Run" transform="translate(1403.0390625 863.5) rotate(0 39.078125 22)">
	<path class="st1" d="M2806.1,1727c74.6-1.5,150.5-2.4,234.5,0 M2806.1,1727c63.3,1,124.4-0.9,234.5,0 M3040.6,1727
		c-6.6,34,2.9,71.9,0,132 M3040.6,1727c-0.4,49.1,1.4,100.6,0,132 M3040.6,1859c-75.5,5.2-145.6,1.1-234.5,0 M3040.6,1859
		c-69.8,4.5-138.5-0.4-234.5,0 M2806.1,1859c-5.7-47.7-1.7-99.4,0-132 M2806.1,1859c-2.1-42.3,0.2-85.3,0-132"/>
</g>
<g id="b-Micro-Oth-Run" transform="translate(1403.0390625 729.5) rotate(0 39.078125 22)">
	<path class="st1" d="M2806.1,1459c80.5,2.4,160.3-2.3,234.5,0 M2806.1,1459c93.8-1.1,185.6-2.2,234.5,0 M3040.6,1459
		c0.8,33.3,5.5,64.3,0,132 M3040.6,1459c-2.3,30.6-2.4,56.2,0,132 M3040.6,1591c-88-4.3-185.6-1.8-234.5,0 M3040.6,1591
		c-50.3,0.8-107.9,1.8-234.5,0 M2806.1,1591c1.6-52-2-102,0-132 M2806.1,1591c-1.9-31.2-3.2-60.6,0-132"/>
</g>
<g id="b-Markov-R-Run" transform="translate(1403.0390625 595.5) rotate(0 39.078125 22)">
	<path class="st1" d="M2806.1,1191c85.9-1.1,164.5,6.1,234.5,0 M2806.1,1191c61.6-1.9,122.3-2.4,234.5,0 M3040.6,1191
		c2.6,46.4,4.2,76.9,0,132 M3040.6,1191c2.9,39.2,0.4,86.6,0,132 M3040.6,1323c-71.1,3.4-136.9-2.4-234.5,0 M3040.6,1323
		c-91-0.7-181.8,4.5-234.5,0 M2806.1,1323c0.5-31.1,1.9-59.8,0-132 M2806.1,1323c0.7-53.3,1.7-102.6,0-132"/>
</g>
<g id="b-Markov-Excel-Run" transform="translate(1403.0390625 461.5) rotate(0 39.078125 22)">
	<path class="st1" d="M2806.1,923c71.6-3.1,151.4-3.2,234.5,0 M2806.1,923c76.2-1.2,153.7,0.6,234.5,0 M3040.6,923
		c5.5,32.8-5.1,55.7,0,132 M3040.6,923c-3.8,43,1.8,85.6,0,132 M3040.6,1055c-53.1-1.2-113.2,4.4-234.5,0 M3040.6,1055
		c-71.9,2.6-136.1-1.9-234.5,0 M2806.1,1055c-3.3-28.8-4.2-54.1,0-132 M2806.1,1055c-1.8-26,0.1-52.3,0-132"/>
</g>
<g id="b-Markov-Oth-Run" transform="translate(1403.0390625 327.5) rotate(0 39.078125 22)">
	<path class="st1" d="M2806.1,655c67.4,6.4,136.8,2.4,234.5,0 M2806.1,655c69.9-0.9,143.1-1.4,234.5,0 M3040.6,655
		c6.3,35.8,1.8,83.8,0,132 M3040.6,655c1.3,31.3,0.9,54.8,0,132 M3040.6,787c-91.6-4-177.5,0.3-234.5,0 M3040.6,787
		c-86.8,0.7-180.1-4.2-234.5,0 M2806.1,787c1-44.5,5.4-86.8,0-132 M2806.1,787c0.7-36.7,0.8-72.6,0-132"/>
</g>
<g id="b-DES-R-Run" transform="translate(1403.0390625 193.5) rotate(0 39.078125 22)">
	<path class="st1" d="M2806.1,387c86.7-1.4,163.3,1,234.5,0 M2806.1,387c65.7,1.5,133.1,1.5,234.5,0 M3040.6,387
		c-4.1,49.1,2.7,91.1,0,132 M3040.6,387c1.8,50.6-3.2,104.4,0,132 M3040.6,519c-64.1,5.5-119.5,4.7-234.5,0 M3040.6,519
		c-74.9-1.2-157.4,1.7-234.5,0 M2806.1,519c-3.4-33.2-5.3-78.3,0-132 M2806.1,519c0.8-36.2,1.4-76.2,0-132"/>
</g>
<g id="b-DES-Oth-Run" transform="translate(1403.0390625 59.5) rotate(0 39.078125 22)">
	<path class="st1" d="M2806.1,119c63.7-0.4,132-2.9,234.5,0 M2806.1,119c56.8-1,113.2,3.8,234.5,0 M3040.6,119
		c2.2,52.8-3.9,107.7,0,132 M3040.6,119c-0.2,26.1,2.8,54.8,0,132 M3040.6,251c-69.9-2-146.2,0.1-234.5,0 M3040.6,251
		c-53.2-0.1-100.9,1.9-234.5,0 M2806.1,251c5.1-38.6-1.6-66.5,0-132 M2806.1,251c0.3-30-3-62.4,0-132"/>
</g>
<g id="b-Micro-R-Sum" transform="translate(1553.1953125 863.5) rotate(0 79.8359375 22)">
	<path class="st1" d="M3106.4,1727c129.3,2,254.1-1.8,479,0 M3106.4,1727c118-0.2,243.5,2.1,479,0 M3585.4,1727c0.4,46.5,4,98,0,132
		 M3585.4,1727c-0.8,42.9-0.1,81.1,0,132 M3585.4,1859c-142.6,9.1-282.9-0.7-479,0 M3585.4,1859c-176.7-4.1-349.2-5.9-479,0
		 M3106.4,1859c-5.1-43-0.4-87.4,0-132 M3106.4,1859c0.5-44.1-1.4-84.2,0-132"/>
</g>
<g id="b-Micro-Oth-Sum" transform="translate(1553.1953125 729.5) rotate(0 79.8359375 22)">
	<path class="st1" d="M3106.4,1459c191.7-2.2,379.3-4.4,479,0 M3106.4,1459c107.2,6.4,216.3,7.2,479,0 M3585.4,1459
		c-4.9,33.1-5,56.3,0,132 M3585.4,1459c2.6,51.2,0.5,105.1,0,132 M3585.4,1591c-103,1.7-220.4,3.7-479,0 M3585.4,1591
		c-186.5-3.8-375.1-3.2-479,0 M3106.4,1591c-2.6-31.8-5.3-60.3,0-132 M3106.4,1591c-3.1-40.4-1.9-75.3,0-132"/>
</g>
<g id="b-Markov-R-Sum" transform="translate(1553.1953125 595.5) rotate(0 79.8359375 22)">
	<path class="st1" d="M3106.4,1191c125.8-3.8,250-4.8,479,0 M3106.4,1191c151.1,2.1,301.1-3.2,479,0 M3585.4,1191
		c5.5,36.6,0.6,89.5,0,132 M3585.4,1191c-2.3,39.1-1,74.7,0,132 M3585.4,1323c-185.9-1.3-371.6,9.2-479,0 M3585.4,1323
		c-101.3-1.3-201.6-1.8-479,0 M3106.4,1323c0-55.4,2-102.8,0-132 M3106.4,1323c-1.7-43.3,2.2-80.9,0-132"/>
</g>
<g id="b-Markov-Excel-Sum" transform="translate(1553.1953125 461.5) rotate(0 79.8359375 22)">
	<path class="st1" d="M3106.4,923c155.8-2.4,314,1.2,479,0 M3106.4,923c101.9-0.4,195.8-2.6,479,0 M3585.4,923
		c-6.3,43.2,4.8,85.3,0,132 M3585.4,923c1.9,30.5-1.1,64,0,132 M3585.4,1055c-146.9,5.3-278.2-3.9-479,0 M3585.4,1055
		c-109.4,0-217.6,2.2-479,0 M3106.4,1055c-3.8-25.7,0-51.9,0-132 M3106.4,1055c-0.5-39.1,3.6-85.5,0-132"/>
</g>
<g id="b-Markov-Oth-Sum" transform="translate(1553.1953125 327.5) rotate(0 79.8359375 22)">
	<path class="st1" d="M3106.4,655c142.9-1.8,292.3-2.7,479,0 M3106.4,655c151.9-6.9,299-3.5,479,0 M3585.4,655
		c1.4,34.3,0.6,52.7,0,132 M3585.4,655c-0.7,49.3,2.2,102.9,0,132 M3585.4,787c-177.4,1.3-367.9-8.5-479,0 M3585.4,787
		c-146.2-4.6-290.7-5.5-479,0 M3106.4,787c1-36.8,1.2-72.1,0-132 M3106.4,787c3.1-24.6-1.7-54.3,0-132"/>
</g>
<g id="b-DES-R-Sum" transform="translate(1553.1953125 193.5) rotate(0 79.8359375 22)">
	<path class="st1" d="M3106.4,387c134.2,3,272.1,3,479,0 M3106.4,387c172-3.9,349.9-6.9,479,0 M3585.4,387c4.8,50.3-5.2,107.1,0,132
		 M3585.4,387c-2,36.3,0.2,69.5,0,132 M3585.4,519c-153.1-2.3-321.5,3.5-479,0 M3585.4,519c-141.6,3.4-282.1,0-479,0 M3106.4,519
		c0.6-35.8,1.8-79.1,0-132 M3106.4,519c3.1-35.4,0.3-65.5,0-132"/>
</g>
<g id="b-DES-Oth-Sum" transform="translate(1553.1953125 59.5) rotate(0 79.8359375 22)">
	<path class="st1" d="M3106.4,119c116-1.9,231.4,7.6,479,0 M3106.4,119c186.7,4.9,369.8,6.8,479,0 M3585.4,119
		c-0.4,24,5.5,53.5,0,132 M3585.4,119c2.7,42.4,2.3,85.9,0,132 M3585.4,251c-108.6-0.2-206.1,3.8-479,0 M3585.4,251
		c-115.5-6.3-237.1-4-479,0 M3106.4,251c0.8-29.6-5.9-63.9,0-132 M3106.4,251c-3.5-32.3-0.6-63.4,0-132"/>
</g>
<g id="ar-Decision-Micro">
	<g transform="translate(121.897 505.5) rotate(0 112.83449999999999 156.5)">
		<path class="st1" d="M245.5,1007.7c57.6,159.3,235.5,797,343.6,956.6c108.1,159.6,255.1,1.3,304.9,1 M241.5,1013.8
			c57.3,158.6,236.4,787.6,345.1,945.3c108.6,157.7,256.8-0.4,306.9,0.8"/>
	</g>
	<g transform="translate(121.897 505.5) rotate(0 112.83449999999999 156.5)">
		<path class="st1" d="M840.2,2010.8c8.5-12.2,31-20.4,53.3-50.9 M840.2,2010.8c22-22.6,44.6-42.5,53.3-50.9"/>
	</g>
	<g transform="translate(121.897 505.5) rotate(0 112.83449999999999 156.5)">
		<path class="st1" d="M821.6,1962.7c12.8-0.1,40,3.9,71.8-2.8 M821.6,1962.7c28.8-3.8,58.6-5,71.8-2.8"/>
	</g>
</g>
<g id="ar-Decision-Markov">
	<g transform="translate(216.922 483.5) rotate(0 89.7735 0)">
		<path class="st1" d="M432,967.4c90.1,0.5,450.9,3.4,541.3,2.8 M436.8,964.5c90.1-0.5,445.3,0.7,534.8,1"/>
	</g>
	<g transform="translate(216.922 483.5) rotate(0 89.7735 0)">
		<path class="st1" d="M901.1,990.9c16.4-1.2,36.8-5.2,70.6-25.4 M901.1,990.9c12.4-3,27.3-10.8,70.6-25.4"/>
	</g>
	<g transform="translate(216.922 483.5) rotate(0 89.7735 0)">
		<path class="st1" d="M901.3,939.6c16.4,10.3,36.8,17.6,70.4,25.9 M901.3,939.6c12.5,7.9,27.3,10.9,70.4,25.9"/>
	</g>
</g>
<g id="ar-Decision-DES">
	<g transform="translate(121.897 461.5) rotate(0 85.01250000000002 -156.5)">
		<path class="st1" d="M245.5,925.3c57-154.7,262.8-777.6,342.3-933.6s111.6-1.6,134.6-2.7 M241.5,923.4
			c56.8-155.3,263.9-781.3,345.1-936.3s119,6.2,142.4,6.2"/>
	</g>
	<g transform="translate(121.897 461.5) rotate(0 85.01250000000002 -156.5)">
		<path class="st1" d="M667.3-42c22.6,16.2,43.3,16.7,61.8,35.3 M667.3-42c22.1,9.1,39.4,25.9,61.8,35.3"/>
	</g>
	<g transform="translate(121.897 461.5) rotate(0 85.01250000000002 -156.5)">
		<path class="st1" d="M703.4-75.5c11.1,26.7,20.6,37.6,25.7,68.8 M703.4-75.5c10.7,19.4,16.6,46.7,25.7,68.8"/>
	</g>
</g>
<g id="ar-Micro-R-Model">
	<g transform="translate(501.346 840.5) rotate(0 176.90699999999998 22.5)">
		<path class="st1" d="M1006.5,1684.2c60.1,21.9,178.9,106.5,355,128.7c176.1,22.1,585.3,3,701.7,4.1 M1003.4,1682.7
			c60.2,22.2,180.8,109.9,357.1,133.1c176.3,23.1,584.4,6,700.8,5.5"/>
	</g>
	<g transform="translate(501.346 840.5) rotate(0 176.90699999999998 22.5)">
		<path class="st1" d="M1991.3,1848.4c19.8-0.6,23.7-10.7,69.9-27 M1991.3,1848.4c20.3-9.2,48.7-18.4,69.9-27"/>
	</g>
	<g transform="translate(501.346 840.5) rotate(0 176.90699999999998 22.5)">
		<path class="st1" d="M1990.3,1797.1c20,10,24.1,10.6,70.9,24.2 M1990.3,1797.1c20.2,7.4,48.9,14.9,70.9,24.2"/>
	</g>
</g>
<g id="ar-Micro-Oth-Model">
	<g transform="translate(501.346 796.5) rotate(0 96.7645 -22.5)">
		<path class="st1" d="M1007.4,1596.3c58.4-22.8,251.9-114.1,347.7-137.7c95.9-23.5,189.3-3,227.6-3.7 M1004.7,1594.9
			c59.5-24.2,260.9-119.4,356.9-142.3c96-22.9,181.7,4.1,219.3,4.8"/>
	</g>
	<g transform="translate(501.346 796.5) rotate(0 96.7645 -22.5)">
		<path class="st1" d="M1507.8,1474.1c28.1-11.2,46.4-9.6,73.1-16.8 M1507.8,1474.1c15.7,0,31.1-8.6,73.1-16.8"/>
	</g>
	<g transform="translate(501.346 796.5) rotate(0 96.7645 -22.5)">
		<path class="st1" d="M1514.1,1423.2c26.5,4.8,42.8,22.2,66.8,34.1 M1514.1,1423.2c14.8,10.9,28.8,13.2,66.8,34.1"/>
	</g>
</g>
<g id="ar-Markov-R-Model">
	<g transform="translate(472.372 505.5) rotate(0 191.39399999999998 56)">
		<path class="st1" d="M949.5,1007.8c73.2,55.6,248.5,283,438.3,340.1c189.8,57,584,2.3,700.7,2.2 M946.9,1014
			c72.6,56,247,272.9,438.4,328s593.3,1.2,710.3,2.6"/>
	</g>
	<g transform="translate(472.372 505.5) rotate(0 191.39399999999998 56)">
		<path class="st1" d="M2026.7,1374.1c19.6-10.3,51.5-27.2,69-29.4 M2026.7,1374.1c29.8-11.6,51.4-20,69-29.4"/>
	</g>
	<g transform="translate(472.372 505.5) rotate(0 191.39399999999998 56)">
		<path class="st1" d="M2023.9,1322.9c21.1,8.3,54,10.1,71.8,21.8 M2023.9,1322.9c30.4,8.1,53,19.4,71.8,21.8"/>
	</g>
</g>
<g id="ar-Markov-Excel-Model">
	<g transform="translate(490.328 483.5) rotate(0 171.2285 0)">
		<path class="st1" d="M979,967.6c170.3-1,856.7-3,1028.4-3.7 M983.9,964.8c169.7,0.8,850.3,1.9,1021.1,2.2"/>
	</g>
	<g transform="translate(490.328 483.5) rotate(0 171.2285 0)">
		<path class="st1" d="M1934.5,992.5c28.2-7.8,49.5-14.1,70.5-25.5 M1934.5,992.5c14.8-8.2,32.7-12.9,70.5-25.5"/>
	</g>
	<g transform="translate(490.328 483.5) rotate(0 171.2285 0)">
		<path class="st1" d="M1934.6,941.2c28.6,12.1,49.9,25.7,70.4,25.8 M1934.6,941.2c14.8,2.7,32.7,8.9,70.4,25.8"/>
	</g>
</g>
<g id="ar-Markov-Oth-Model">
	<g transform="translate(472.372 461.5) rotate(0 149.01699999999997 -56)">
		<path class="st1" d="M946.8,923.9c72.5-55,289.5-277.7,437.4-333.8c147.9-56.1,373.9-2.3,450-2.9 M942.8,921.3
			c73.2-55.7,298.2-281,447.9-335.9c149.8-55,376.9,5.1,450.5,5.9"/>
	</g>
	<g transform="translate(472.372 461.5) rotate(0 149.01699999999997 -56)">
		<path class="st1" d="M1768.2,608.4c30.2-11.9,62.3-18.8,73-17.2 M1768.2,608.4c20-2.5,42.9-9.8,73-17.2"/>
	</g>
	<g transform="translate(472.372 461.5) rotate(0 149.01699999999997 -56)">
		<path class="st1" d="M1774.3,557.5c27.4,8,57.2,21.1,67,33.8 M1774.3,557.5c18.7,13,39.8,21.3,67,33.8"/>
	</g>
</g>
<g id="ar-DES-R-Model">
	<g transform="translate(501.346 170.5) rotate(0 176.90699999999998 22.5)">
		<path class="st1" d="M1005.1,337.9c60.1,21.9,180,111.3,356.2,134.9c176.3,23.6,584.6,6.5,701.5,6.7 M1001.2,344.2
			c60.1,22.2,182.3,110,358.9,131.6c176.6,21.7,583.3-1.4,700.5-1.4"/>
	</g>
	<g transform="translate(501.346 170.5) rotate(0 176.90699999999998 22.5)">
		<path class="st1" d="M1990.8,501.9c9.7-0.9,24.4-11.5,69.8-27.5 M1990.8,501.9c30.5-11.8,56.3-21.5,69.8-27.5"/>
	</g>
	<g transform="translate(501.346 170.5) rotate(0 176.90699999999998 22.5)">
		<path class="st1" d="M1989.5,450.6c10,10,25,10.2,71.1,23.8 M1989.5,450.6c31,8.6,57.3,19.4,71.1,23.8"/>
	</g>
</g>
<g id="ar-DES-Oth-Model">
	<g transform="translate(501.346 126.5) rotate(0 142.2545 -22.5)">
		<path class="st1" d="M1001.1,256.1c58.4-22.6,211.2-114.8,354-137.9c142.9-23.1,420.3-1,503.1-0.5 M1006.1,254.5
			c59.4-22.1,213.5-109.5,355.5-131.7c141.9-22.2,414.5-0.1,496.2-1.4"/>
	</g>
	<g transform="translate(501.346 126.5) rotate(0 142.2545 -22.5)">
		<path class="st1" d="M1786.7,145.1c27.6-12.1,45.3-8.5,71.2-23.6 M1786.7,145.1c19.5-6.9,41.6-16.7,71.2-23.6"/>
	</g>
	<g transform="translate(501.346 126.5) rotate(0 142.2545 -22.5)">
		<path class="st1" d="M1788.1,93.8c27.2,4.1,44.5,24,69.7,27.7 M1788.1,93.8c18.8,8.1,40.4,13.3,69.7,27.7"/>
	</g>
</g>
<g id="ar-Micro-R-Soft">
	<g transform="translate(884.715 885.5) rotate(0 141.39249999999998 0.25)">
		<path class="st1" d="M1773.8,1769.4c128.6,0.8,641.1,5.3,769.3,5.2 M1771.2,1775.6c128,0.2,641.1-4.8,769.3-5.5"/>
	</g>
	<g transform="translate(884.715 885.5) rotate(0 141.39249999999998 0.25)">
		<path class="st1" d="M2476.3,1796.2c16.3-8.8,47.3-18.1,64.2-26.2 M2476.3,1796.2c15.3-5.8,27.5-9.1,64.2-26.2"/>
	</g>
	<g transform="translate(884.715 885.5) rotate(0 141.39249999999998 0.25)">
		<path class="st1" d="M2476,1744.9c16,7.8,47.1,15.2,64.5,25.1 M2476,1744.9c15.8,6.1,28.1,14.7,64.5,25.1"/>
	</g>
</g>
<g id="ar-Micro-Oth-Soft">
	<g transform="translate(1045 751.5) rotate(0 61.25 0.25)">
		<path class="st1" d="M2088.4,1504.7c50-0.8,250.8-2.2,299.9-2 M2092.4,1501.6c50.1,1.3,245.6,5.6,295.1,5.5"/>
	</g>
	<g transform="translate(1045 751.5) rotate(0 61.25 0.25)">
		<path class="st1" d="M2330.4,1532.1c12.4,1.1,24-14.2,57.1-25 M2330.4,1532.1c22.3-12.2,46.9-19.8,57.1-25"/>
	</g>
	<g transform="translate(1045 751.5) rotate(0 61.25 0.25)">
		<path class="st1" d="M2330.8,1480.8c12.6,12.2,24.2,7.9,56.8,26.3 M2330.8,1480.8c22,7.9,46.4,20.2,56.8,26.3"/>
	</g>
</g>
<g id="ar-Markov-R-Soft">
	<g transform="translate(884.715 617.5) rotate(0 141.39249999999998 0.25)">
		<path class="st1" d="M1770.7,1240c128.2-0.1,642.5-6.4,771.6-7.5 M1766.8,1238.8c127.5,0.5,643.1-2.5,772.8-2.9"/>
	</g>
	<g transform="translate(884.715 617.5) rotate(0 141.39249999999998 0.25)">
		<path class="st1" d="M2475.4,1261.8c30.4-10.5,46-14.6,64.3-25.9 M2475.4,1261.8c14.2-3.8,32.6-10.8,64.3-25.9"/>
	</g>
	<g transform="translate(884.715 617.5) rotate(0 141.39249999999998 0.25)">
		<path class="st1" d="M2475.2,1210.5c30,9.2,45.7,24.9,64.5,25.3 M2475.2,1210.5c14.4,9.2,32.7,15.3,64.5,25.3"/>
	</g>
</g>
<g id="ar-Markov-Excel-Soft">
	<g transform="translate(907.09 483.5) rotate(0 130.20499999999998 0.25)">
		<path class="st1" d="M1819,968.2c118.1,0.3,585.5,2.1,702.7,2 M1816.7,964.9c119.4-0.7,594.1-0.5,711.2,0.7"/>
	</g>
	<g transform="translate(907.09 483.5) rotate(0 130.20499999999998 0.25)">
		<path class="st1" d="M2463.7,990.9c13.2-10.2,32.3-14.2,64.2-25.3 M2463.7,990.9c23.2-7.7,43.5-14.8,64.2-25.3"/>
	</g>
	<g transform="translate(907.09 483.5) rotate(0 130.20499999999998 0.25)">
		<path class="st1" d="M2463.9,939.6c13.2,0.8,32.2,7.6,64,26 M2463.9,939.6c23.1,8.8,43.3,18.1,64,26"/>
	</g>
</g>
<g id="ar-Markov-Oth-Soft">
	<g transform="translate(969.469 349.5) rotate(0 99.01549999999997 0.25)">
		<path class="st1" d="M1939.6,698c87.2-1.1,436.5-0.8,523.4-0.7 M1935.6,704.6c87,0.9,439.1-3.2,526.4-3.5"/>
	</g>
	<g transform="translate(969.469 349.5) rotate(0 99.01549999999997 0.25)">
		<path class="st1" d="M2400.1,727.2c15-2.5,35.1-14.5,61.9-26.1 M2400.1,727.2c18.5-6.1,37.8-18.7,61.9-26.1"/>
	</g>
	<g transform="translate(969.469 349.5) rotate(0 99.01549999999997 0.25)">
		<path class="st1" d="M2399.8,675.9c15.6,13.1,35.7,16.7,62.2,25.2 M2399.8,675.9c18.2,9.2,37.6,11.8,62.2,25.2"/>
	</g>
</g>
<g id="ar-DES-R-Soft">
	<g transform="translate(884.715 215.5) rotate(0 141.39249999999998 0.25)">
		<path class="st1" d="M1768.5,435.7c127.7-0.1,642.9-2.7,771.8-4 M1773.3,434.3c126.9-1.2,635.8-7.9,763.5-8.5"/>
	</g>
	<g transform="translate(884.715 215.5) rotate(0 141.39249999999998 0.25)">
		<path class="st1" d="M2472.8,452.1c30.5-12.7,52.3-20.6,64.1-26.3 M2472.8,452.1c16.3-4.9,26.3-9.8,64.1-26.3"/>
	</g>
	<g transform="translate(884.715 215.5) rotate(0 141.39249999999998 0.25)">
		<path class="st1" d="M2472.4,400.8c30.6,7.7,52.5,20.2,64.5,25 M2472.4,400.8c16.8,6.6,26.9,13.2,64.5,25"/>
	</g>
</g>
<g id="ar-DES-Oth-Soft">
	<g transform="translate(954.02 81.5) rotate(0 106.74000000000001 0.25)">
		<path class="st1" d="M1912.5,162.9c94.2,0.1,469-0.5,562.2,0.1 M1910.1,169.8c93.9,1,467.8-0.9,562.4-2.4"/>
	</g>
	<g transform="translate(954.02 81.5) rotate(0 106.74000000000001 0.25)">
		<path class="st1" d="M2410.3,193.7c15.9-7,36.3-20.4,62.2-26.2 M2410.3,193.7c25.2-13.4,50.5-18.4,62.2-26.2"/>
	</g>
	<g transform="translate(954.02 81.5) rotate(0 106.74000000000001 0.25)">
		<path class="st1" d="M2409.9,142.4c15.7,8,36.2,9.4,62.6,25.1 M2409.9,142.4c25.3,6.7,50.7,21.8,62.6,25.1"/>
	</g>
</g>
<g id="ar-Micro-R-Param-Run">
	<g transform="translate(1331.539 886) rotate(0 47 0)">
		<path class="st1" d="M2662.9,1774.3c18-1.5,70.8-5.8,107.1-6.5c36.3-0.7,92.4,1.9,110.8,2.5 M2667.3,1771.6
			c17.7,0.4,65-1,100.4-0.6c35.5,0.5,93.5,2.5,112.6,3.2"/>
	</g>
	<g transform="translate(1331.539 886) rotate(0 47 0)">
		<path class="st1" d="M2829,1796.5c12.7-5,20.2-4.5,51.3-22.3 M2829,1796.5c13.1-4.9,32.3-16,51.3-22.3"/>
	</g>
	<g transform="translate(1331.539 886) rotate(0 47 0)">
		<path class="st1" d="M2830.1,1748.3c12.8,6.2,20,17.8,50.3,25.9 M2830.1,1748.3c13.1,9.4,32,12.5,50.3,25.9"/>
	</g>
</g>
<g id="ar-Micro-Oth-Param-Run">
	<g transform="translate(1331.539 752) rotate(0 47 0)">
		<path class="st1" d="M2664.4,1505.4c16.6,0.3,66.7,0.4,101.7,0.4c35,0,90.3,0.6,108.5-0.5 M2661.4,1502.2
			c17.3-0.4,74.5-0.6,109.8-1c35.2-0.4,84.1-1.4,101.7-1.4"/>
	</g>
	<g transform="translate(1331.539 752) rotate(0 47 0)">
		<path class="st1" d="M2822.9,1524.4c19.4-14.2,43.2-19.6,49.9-24.6 M2822.9,1524.4c20.3-6.1,35.7-20.3,49.9-24.6"/>
	</g>
	<g transform="translate(1331.539 752) rotate(0 47 0)">
		<path class="st1" d="M2822.6,1476.2c19.4,4.6,43.3,18,50.2,23.6 M2822.6,1476.2c20.5,12.2,36,16.2,50.2,23.6"/>
	</g>
</g>
<g id="ar-Markov-R-Param-Run">
	<g transform="translate(1331.539 618) rotate(0 47 0)">
		<path class="st1" d="M2663.4,1234.8c18.1-0.7,71.8-0.6,107.5-0.5c35.7,0.2,89.8,0.8,106.8,1.3 M2660,1241.2
			c18.1-0.1,73.8-0.3,110-2.3c36.2-2,89.9-8.3,107-9.7"/>
	</g>
	<g transform="translate(1331.539 618) rotate(0 47 0)">
		<path class="st1" d="M2828.3,1258.2c8.9-1.9,24.6-10,48.8-29 M2828.3,1258.2c18.4-12.7,30.8-19.4,48.8-29"/>
	</g>
	<g transform="translate(1331.539 618) rotate(0 47 0)">
		<path class="st1" d="M2825.5,1210.1c9.7,10.4,26.1,14.4,51.6,19.1 M2825.5,1210.1c19,3.2,32.3,12.4,51.6,19.1"/>
	</g>
</g>
<g id="ar-Markov-Excel-Param-Run">
	<g transform="translate(1331.539 484) rotate(0 47 0)">
		<path class="st1" d="M2661.9,972.8c17.4,0,71.1-1.9,106.9-3.5s90-5.9,108.2-5.9 M2665.8,971.4c17-1,65.8-6.1,100.8-7
			c35-0.9,90.3,1.5,109.1,1.4"/>
	</g>
	<g transform="translate(1331.539 484) rotate(0 47 0)">
		<path class="st1" d="M2825.1,989.1c20.5-7.2,36.2-12.6,50.6-23.3 M2825.1,989.1c8.8-7.9,21.8-10.9,50.6-23.3"/>
	</g>
	<g transform="translate(1331.539 484) rotate(0 47 0)">
		<path class="st1" d="M2825.6,940.8c20.3,8.3,35.9,18.4,50.2,25 M2825.6,940.8c8.9,2.6,21.9,9.9,50.2,25"/>
	</g>
</g>
<g id="ar-Markov-Oth-Param-Run">
	<g transform="translate(1331.539 350) rotate(0 47 0)">
		<path class="st1" d="M2667.3,701.3c18,0.2,70.6-1.6,105.5-1.7c34.9-0.1,85.6,1.9,103.7,1.2 M2665.2,698.1
			c17.9-0.8,70.4-3.8,106.5-4.3c36.1-0.5,93,0.7,110.1,1.2"/>
	</g>
	<g transform="translate(1331.539 350) rotate(0 47 0)">
		<path class="st1" d="M2830.7,717.9c15.2-2.7,32-19.3,51.2-22.9 M2830.7,717.9c16.8-7.6,36.9-17.7,51.2-22.9"/>
	</g>
	<g transform="translate(1331.539 350) rotate(0 47 0)">
		<path class="st1" d="M2831.4,669.7c14.7,11.6,31.3,9.4,50.5,25.3 M2831.4,669.7c16.8,10,36.7,17.4,50.5,25.3"/>
	</g>
</g>
<g id="ar-DES-R-Param-Run">
	<g transform="translate(1331.539 216) rotate(0 47 0)">
		<path class="st1" d="M2663.4,436.3c18.1-1.6,70.5-8.4,106.4-8.9c35.8-0.5,91.2,6.2,108.6,6.3 M2660,434.7
			c17.9,0.3,71.8-3.2,108-4.2c36.2-1,91.9-2,109.5-2.1"/>
	</g>
	<g transform="translate(1331.539 216) rotate(0 47 0)">
		<path class="st1" d="M2827.1,453.1c14.7-3.7,18.6-7.2,50.4-24.8 M2827.1,453.1c20-9.4,38.2-18.3,50.4-24.8"/>
	</g>
	<g transform="translate(1331.539 216) rotate(0 47 0)">
		<path class="st1" d="M2826.7,404.9c15.2,7.1,19.1,14.4,50.8,23.5 M2826.7,404.9c19.8,9.4,38.2,19.3,50.8,23.5"/>
	</g>
</g>
<g id="ar-DES-Oth-Param-Run">
	<g transform="translate(1331.539 82) rotate(0 47 0)">
		<path class="st1" d="M2666.7,166.6c16.8-0.1,65.5-0.6,101.2-1.8c35.7-1.2,94.8-5.2,112.8-5.5 M2664.5,164.1
			c17.4-1.1,72.5-4,108.4-4.4c36-0.4,90.2,0.8,107.3,1.9"/>
	</g>
	<g transform="translate(1331.539 82) rotate(0 47 0)">
		<path class="st1" d="M2829,183.6c21.5-14.2,43.1-12.4,51.3-22 M2829,183.6c10.7-6.3,22.1-11.4,51.3-22"/>
	</g>
	<g transform="translate(1331.539 82) rotate(0 47 0)">
		<path class="st1" d="M2830.1,135.4c21.1,4.7,42.3,25.4,50.2,26.2 M2830.1,135.4c10.2,3.9,21.4,8.9,50.2,26.2"/>
	</g>
</g>
<g id="ar-Micro-R-Run-Sum">
	<g transform="translate(1481.695 886) rotate(0 47 0)">
		<path class="st1" d="M2965.1,1770.5c18-0.4,71.9,3.7,107.2,3.3s86.5-5.3,104.3-5.9 M2962.2,1776.7c17.8-1.6,72.2-6.6,108.9-7.6
			c36.6-1.1,92.8,0.6,111,1.3"/>
	</g>
	<g transform="translate(1481.695 886) rotate(0 47 0)">
		<path class="st1" d="M3130.6,1792.8c11.2-3,34.5-18.9,51.4-22.5 M3130.6,1792.8c10.3-4.5,21.6-7.4,51.4-22.5"/>
	</g>
	<g transform="translate(1481.695 886) rotate(0 47 0)">
		<path class="st1" d="M3131.5,1744.6c11.2,11.3,34.2,9.7,50.5,25.7 M3131.5,1744.6c10.2,6.3,21.2,14.3,50.5,25.7"/>
	</g>
</g>
<g id="ar-Micro-Oth-Run-Sum">
	<g transform="translate(1481.695 752) rotate(0 47 0)">
		<path class="st1" d="M2961.9,1507.8c17.8-1.2,75.4-7.7,111.3-8.5c35.9-0.8,86.5,3.2,104.2,3.4 M2965.7,1505.9
			c17.5-1,70.3-3.8,106.6-3.7c36.2,0.2,92.8,4.4,110.7,4.6"/>
	</g>
	<g transform="translate(1481.695 752) rotate(0 47 0)">
		<path class="st1" d="M3131.3,1528.8c22.5-2.4,34.9-20.6,51.7-22 M3131.3,1528.8c16.2-8.5,33.7-16.1,51.7-22"/>
	</g>
	<g transform="translate(1481.695 752) rotate(0 47 0)">
		<path class="st1" d="M3132.5,1480.6c22.2,15.8,34.2,15.8,50.5,26.2 M3132.5,1480.6c15.8,6.3,33,13.4,50.5,26.2"/>
	</g>
</g>
<g id="ar-Markov-R-Run-Sum">
	<g transform="translate(1481.695 618) rotate(0 47 0)">
		<path class="st1" d="M2966.4,1240.7c16.9-0.4,65.5-7.9,100.5-8.9c35-1.1,91.6,1.9,109.5,2.4 M2964,1239.3
			c17.6,0.2,72.6-4.1,107.8-4.3c35.1-0.2,85.9,2.4,103,3"/>
	</g>
	<g transform="translate(1481.695 618) rotate(0 47 0)">
		<path class="st1" d="M3124,1260c21-13.1,30.4-14.6,50.8-22 M3124,1260c13.3-3.9,27.4-13.6,50.8-22"/>
	</g>
	<g transform="translate(1481.695 618) rotate(0 47 0)">
		<path class="st1" d="M3125.2,1211.8c20.3,2.9,29.3,17.2,49.7,26.2 M3125.2,1211.8c12.8,10.2,26.6,14.4,49.7,26.2"/>
	</g>
</g>
<g id="ar-Markov-Excel-Run-Sum">
	<g transform="translate(1481.695 484) rotate(0 47 0)">
		<path class="st1" d="M2967.5,966.3c17.3-0.8,64.6,0.7,99,0.4c34.4-0.3,89.5-1.7,107.5-2.1 M2965.4,972.4
			c18.3-0.4,71.6-0.2,106.1-1c34.4-0.8,83.3-3,100.7-3.9"/>
	</g>
	<g transform="translate(1481.695 484) rotate(0 47 0)">
		<path class="st1" d="M3123.2,994c6.4-10.8,21.3-12.5,49-26.5 M3123.2,994c14-9.1,23.6-13.3,49-26.5"/>
	</g>
	<g transform="translate(1481.695 484) rotate(0 47 0)">
		<path class="st1" d="M3121.9,945.8c6.9-0.4,22.1,8.2,50.3,21.7 M3121.9,945.8c14.4,2.8,24.3,10.5,50.3,21.7"/>
	</g>
</g>
<g id="ar-Markov-Oth-Run-Sum">
	<g transform="translate(1481.695 350) rotate(0 47 0)">
		<path class="st1" d="M2961.7,698.8c17-1.1,71.1-0.7,106.2-0.6c35.1,0,87,0.3,104.3,0.8 M2965.4,705.2c16.5,1.1,66.4-2.2,100.5-2.6
			c34-0.3,86.3,1.8,103.8,0.7"/>
	</g>
	<g transform="translate(1481.695 350) rotate(0 47 0)">
		<path class="st1" d="M3120.1,728c14.5-8.1,35.6-20.6,49.6-24.8 M3120.1,728c13.5-9.1,30.9-18.3,49.6-24.8"/>
	</g>
	<g transform="translate(1481.695 350) rotate(0 47 0)">
		<path class="st1" d="M3119.8,679.8c15,9.5,36.1,14.5,49.9,23.5 M3119.8,679.8c13.4,6.1,30.8,12.1,49.9,23.5"/>
	</g>
</g>
<g id="ar-DES-R-Run-Sum">
	<g transform="translate(1481.695 216) rotate(0 47 0)">
		<path class="st1" d="M2962.2,433.7c17-0.3,70.6-4.2,106.2-5.1c35.6-1,89.1-0.3,107.3-0.6 M2966.1,430.7c16.4,0.4,65.3,1.5,100,1.5
			c34.7,0,90.6-0.9,108.1-1.5"/>
	</g>
	<g transform="translate(1481.695 216) rotate(0 47 0)">
		<path class="st1" d="M3124.5,456c19.8-9.9,36.5-18.4,49.8-25.4 M3124.5,456c10.8-5.9,21.2-10.7,49.8-25.4"/>
	</g>
	<g transform="translate(1481.695 216) rotate(0 47 0)">
		<path class="st1" d="M3123.8,407.8c19.8,8.9,36.8,19.2,50.5,22.9 M3123.8,407.8c11.3,5.3,21.9,11.6,50.5,22.9"/>
	</g>
</g>
<g id="ar-DES-Oth-Run-Sum">
	<g transform="translate(1481.695 82) rotate(0 47 0)">
		<path class="st1" d="M2964.1,165.2c17.8,0,68.7-2.2,104-2.2c35.2,0.1,89.7,2.9,107.5,2.6 M2960.8,161.9c18.9,0.9,76,6.3,112.7,6.1
			c36.7-0.3,90.9-7.1,107.7-7.7"/>
	</g>
	<g transform="translate(1481.695 82) rotate(0 47 0)">
		<path class="st1" d="M3131.7,188.3c10.2-9.2,21.7-16,49.5-28 M3131.7,188.3c18.9-12.8,38.9-21.8,49.5-28"/>
	</g>
	<g transform="translate(1481.695 82) rotate(0 47 0)">
		<path class="st1" d="M3129.5,140.2c10.4,1,22.4,4.3,51.7,20.1 M3129.5,140.2c19.4,5.9,40.3,15.6,51.7,20.1"/>
	</g>
</g>
<g id="Software" transform="translate(833.8388671875 15) rotate(0 36.0986328125 12.5)">
	<text transform="matrix(1 0 0 1 1211.8191 81.1747)" class="st2 st3 st4">Software</text>
</g>
<g id="Model" transform="translate(417.2900390625 38) rotate(0 26.1083984375 12.5)">
	<text transform="matrix(1 0 0 1 428.2209 136.559)" class="st2 st3 st4">Model</text>
</g>
<g id="Decision_Problem" transform="translate(41.52734375 471) rotate(0 71.93359375 12.5)">
	<text transform="matrix(1 0 0 1 68.3823 1002.09)" class="st2 st3 st4">Decision Problem</text>
</g>
<g id="Micro" transform="translate(376.73828125 806) rotate(0 66.66015625 12.5)">
	<text transform="matrix(1 0 0 1 741.3077 1672.6)" class="st2 st3 st4">Microsimulation</text>
</g>
<g id="Markov" transform="translate(411.73828125 471) rotate(0 31.66015625 12.5)">
	<text transform="matrix(1 0 0 1 815.7576 994.4695)" class="st2 st3 st4">Markov</text>
</g>
<g id="DES" transform="translate(337.8662109375 136) rotate(0 105.5322265625 12.5)">
	<text transform="matrix(1 0 0 1 630.9448 314.36)" class="st2 st3 st4">Discrete Event Simulation</text>
</g>
<g id="Micro-R" transform="translate(863.267578125 873) rotate(0 6.669921875 12.5)">
	<text transform="matrix(1 0 0 1 1724.8969 1802.355)" class="st2 st3 st4">R</text>
</g>
<g id="Micro-Oth" transform="translate(715.1572265625 739) rotate(0 154.7802734375 12.5)">
	<text transform="matrix(1 0 0 1 1390.5957 1520.8101)" class="st2 st3 st4">Other\n(C++, Python, Treeage, Amua)</text>
</g>
<g id="Markov-R" transform="translate(863.267578125 605) rotate(0 6.669921875 12.5)">
	<text transform="matrix(1 0 0 1 1720.1576 1262.4697)" class="st2 st3 st4">R</text>
</g>
<g id="Markov-Excel" transform="translate(847.173828125 471) rotate(0 22.763671875 12.5)">
	<text transform="matrix(1 0 0 1 1686.3472 985.8)" class="st2 st3 st4">Excel</text>
</g>
<g id="Markov-Oth" transform="translate(799.21484375 324.5) rotate(0 70.72265625 25)">
	<text transform="matrix(1 0 0 1 1568.0786 701.665)" class="st2 st3 st4">Other\n(Treeage,</text>
	<text transform="matrix(1 0 0 1 1708.7183 776.665)" class="st2 st3 st4">Amua)</text>
</g>
<g id="DES-R" transform="translate(863.267578125 203) rotate(0 6.669921875 12.5)">
	<text transform="matrix(1 0 0 1 1724.8969 456.355)" class="st2 st3 st4">R</text>
</g>
<g id="DES-Oth" transform="translate(813.111328125 56.5) rotate(0 56.826171875 25)">
	<text transform="matrix(1 0 0 1 1621.623 155)" class="st2 st3 st4">Other\n(C++,</text>
	<text transform="matrix(1 0 0 1 1693.3125 230)" class="st2 st3 st4">Python)</text>
</g>
<g id="Micro-R-Param" transform="translate(1185.83203125 873) rotate(0 52.1875 12.5)">
	<text transform="matrix(1 0 0 1 2369.2012 1797.75)" class="st2 st3 st4">Parameterize</text>
</g>
<g id="Micro-Oth-Param" transform="translate(1185.83203125 739) rotate(0 52.1875 12.5)">
	<text transform="matrix(1 0 0 1 2369.2012 1529.75)" class="st2 st3 st4">Parameterize</text>
</g>
<g id="Markov-R-Param" transform="translate(1185.83203125 605) rotate(0 52.1875 12.5)">
	<text transform="matrix(1 0 0 1 2369.2012 1261.75)" class="st2 st3 st4">Parameterize</text>
</g>
<g id="Markov-Excel-Param" transform="translate(1185.83203125 471) rotate(0 52.1875 12.5)">
	<text transform="matrix(1 0 0 1 2369.2012 993.75)" class="st2 st3 st4">Parameterize</text>
</g>
<g id="Markov-Oth-Param" transform="translate(1185.83203125 337) rotate(0 52.1875 12.5)">
	<text transform="matrix(1 0 0 1 2369.2012 725.75)" class="st2 st3 st4">Parameterize</text>
</g>
<g id="DES-R-Param" transform="translate(1185.83203125 203) rotate(0 52.1875 12.5)">
	<text transform="matrix(1 0 0 1 2369.2012 457.75)" class="st2 st3 st4">Parameterize</text>
</g>
<g id="DES-Oth-Param" transform="translate(1185.83203125 69) rotate(0 52.1875 12.5)">
	<text transform="matrix(1 0 0 1 2369.2012 189.75)" class="st2 st3 st4">Parameterize</text>
</g>
<g id="Micro-R-Run" transform="translate(1425.447265625 873) rotate(0 16.669921875 12.5)">
	<text transform="matrix(1 0 0 1 2865.248 1797.75)" class="st2 st3 st4">Run</text>
</g>
<g id="Micro-Oth-Run" transform="translate(1425.447265625 739) rotate(0 16.669921875 12.5)">
	<text transform="matrix(1 0 0 1 2865.248 1529.75)" class="st2 st3 st4">Run</text>
</g>
<g id="Markov-R-Run" transform="translate(1425.447265625 605) rotate(0 16.669921875 12.5)">
	<text transform="matrix(1 0 0 1 2865.248 1261.75)" class="st2 st3 st4">Run</text>
</g>
<g id="Markov-Excel-Run" transform="translate(1425.447265625 471) rotate(0 16.669921875 12.5)">
	<text transform="matrix(1 0 0 1 2865.248 993.75)" class="st2 st3 st4">Run</text>
</g>
<g id="Markov-Oth-Run" transform="translate(1425.447265625 337) rotate(0 16.669921875 12.5)">
	<text transform="matrix(1 0 0 1 2865.248 725.75)" class="st2 st3 st4">Run</text>
</g>
<g id="DES-R-Run" transform="translate(1425.447265625 203) rotate(0 16.669921875 12.5)">
	<text transform="matrix(1 0 0 1 2865.248 457.75)" class="st2 st3 st4">Run</text>
</g>
<g id="DES-Oth-Run" transform="translate(1425.447265625 69) rotate(0 16.669921875 12.5)">
	<text transform="matrix(1 0 0 1 2865.248 189.75)" class="st2 st3 st4">Run</text>
</g>
<g id="Micro-R-Sum" transform="translate(1587.4892578125 873) rotate(0 45.5419921875 12.5)">
	<text transform="matrix(1 0 0 1 3179.2832 1797.75)" class="st2 st3 st4">Summarize</text>
</g>
<g id="Micro-Oth-Sum" transform="translate(1587.4892578125 739) rotate(0 45.5419921875 12.5)">
	<text transform="matrix(1 0 0 1 3179.2832 1529.75)" class="st2 st3 st4">Summarize</text>
</g>
<g id="Markov-R-Sum" transform="translate(1587.4892578125 605) rotate(0 45.5419921875 12.5)">
	<text transform="matrix(1 0 0 1 3179.2832 1261.75)" class="st2 st3 st4">Summarize</text>
</g>
<g id="Markov-Excel-Sum" transform="translate(1587.4892578125 471) rotate(0 45.5419921875 12.5)">
	<text transform="matrix(1 0 0 1 3179.2832 993.75)" class="st2 st3 st4">Summarize</text>
</g>
<g id="Markov-Oth-Sum" transform="translate(1587.4892578125 337) rotate(0 45.5419921875 12.5)">
	<text transform="matrix(1 0 0 1 3179.2832 725.75)" class="st2 st3 st4">Summarize</text>
</g>
<g id="DES-R-Sum" transform="translate(1587.4892578125 203) rotate(0 45.5419921875 12.5)">
	<text transform="matrix(1 0 0 1 3162.665 458.4697)" class="st2 st3 st4">Summarize</text>
</g>
<g id="DES-Oth-Sum" transform="translate(1587.4892578125 69) rotate(0 45.5419921875 12.5)">
	<text transform="matrix(1 0 0 1 3162.665 186.3604)" class="st2 st3 st4">Summarize</text>
</g>
</svg>
